<mxfile host="65bd71144e">
    <diagram id="Lu83tjWo-Wz-DkkKe9Yt" name="第 1 页">
        <mxGraphModel dx="1336" dy="933" grid="0" gridSize="10" guides="1" tooltips="1" connect="1" arrows="1" fold="1" page="0" pageScale="1" pageWidth="850" pageHeight="1100" math="0" shadow="0">
            <root>
                <mxCell id="0"/>
                <mxCell id="1" parent="0"/>
                <mxCell id="8" value="" style="shape=image;verticalLabelPosition=bottom;labelBackgroundColor=default;verticalAlign=top;aspect=fixed;imageAspect=0;image=data:image/png,iVBORw0KGgoAAAANSUhEUgAAAOwAAAENCAYAAAAMvImHAAAgAElEQVR4nO29S4wl15nn9/u+ExH3kZlVxWIVKRYlkXq31BJa/cD0tNsDNwaY2Xg8BnplD9ort+1eDGYzmOXsvHcDBtywV7MZGAPInpWNmXbLg5mGbKnVklpqtUjqQVKkxEexWKzKR917I+KcbxbnRNy4NzOLVVnMzLqV50ckszIzbjzujX9853yvI2ZmZDKZjUDP+wQymcyDkwWbyWwQWbCZzAaRBZvJbBBZsJnMBpEFm8lsEFmwmcwGkQWbyWwQWbCZzAaRBZvJbBBZsJnMBpEFm8lsEFmwmcwGkQWbyWwQWbBnhKWvTOZRyII9Q+S8T+DcyY+sRyUL9ozIYoU8znh0inM9ul2QD1D6/3GxpSscvv4L8PkDH9XnLrlFTCazOZyKhQ0hMJvXqDqGT5bFvqe+V6Om6VkrqBNCMD78CWSICGaWLPMZWCoBFcF76w8nxxzXgKZpqKoSASwEEEGc4gXMwdYlhwjx9+l6RqPzHeScF4uFZ2grun8d96k+ilU5izHNUecnx/zNe890UqH68Gd2KnfLG7/4gD/+X/5viq3nWISSQgoKb7zz49dp9u8hZqgagoEKwa9+eEciUae+bSmKIt74p4iKYgIhRGG1rUdEUFmf9i/F3CwaptMJ4g0xCGbUFgilg7LimeefYzQeoQWoNty4Meaf/NF/durX8lhhsLe34F/+79/n7ZsNdWuoOnzTIMT3HSU+7NN7iKSH+oMMBocq6d/X0x1EqirBDN96nHNYOrCqggjeB0yFQAuhZrb/S/7ZP/2HvHDjMmb2UMI9FcHO6pK/enmKm2zhrcV8zU5ZMbr3AtPxiFoaGm3w0mIYyIO9ocEHRJWFyZnc5CF4VASR4+wqWDA6DduWsS9Cd0kFDmmNSVEyaxp+8W7JfuNpvceHe/zKTOODiAsys00f86s/2eXf//k7HLQ3AMVZSxkCQogbiaBimIGJgAgWHkyvICBJ6IBZOKWLGRxR0sPEAAn9eYoG4uGFmkBQUHEc3Gu5vR94IY3gHoZTEWxRVBSj6zz3/HP8+lfGPL0T2FHhvf/vDd56/ec89elnefbLn6QuPEHsgR+A3ntEFVF5wA/v0fCtp3B63/PzwSOidBs5p3GoD2wXJbuvv8/b338FPxY+9/d+h8W45K9eOeCHL79LOZ7G4fPpX8pjxe4Hc9RvM9VLjN0BY52j9S2wZuXNMOIIR9VBEu6HkjbxaWSU9JumXaeBpeO1OOdWHryqShAoXElVjGnDiFnxFG/WV9Gi7D/7h5Hs6cxhDUJomIxrfu93nuPLnx5RAD9++yX+wyvf4Ysf/13+9n/xu9jU8TB3rFkcfkqyYmfCh5yfMXjgyHKOKwIOePPfH/Dn3/4hblLxn//eP0CuX+Kef40fvFQT2FrZ0xNvZ9PlmQkuCOZ3+U//zjV+8zeeJdTPItYOpkbRXxGHjEr64B/yXpGkc8UHfxpX1H9iIQScc71lx8AVjuADpSsId4zv/flr/ODWLiNXpUf6w3NKHg9jPlswnVTsTB1VOsqlpy6zVRRsT8eUEwflw+73cbyh739O48kWIykZlWMmWxNCCRAwKyiLKNgo1cfx2k6HUhQLxsFsl+c/8yJf/U+ucVSM9rAj6kHfI1t7rQx+89HSfW6GEV2Jy3MYfqZ7r77PS9/8PsEHAuHEI8RTEaxzyngy5ZUf3+aP/7cDnrm04GPa0v7wJ9yZXePd//8233z3W9x2jvYMjeWDED3RECcfhjrFtx4LAVe4I7fHrJ8rqXP4tkF8w7XxlPbt92iaGxy8dY+f/8/f4N7l53jpzTltkzzJFxAzI1jgXlMztxrp39ZVQZ78IXb4laf9QOxHVoPfDGnCgtrP8DKhtcD4hNGBUxGs9y0hNMxr4ft/8z7W7vPUqOKafwEZv8DsDux9e8bdZoGl/8JjcvNGT3D3RA6kaRBYFNj6k1FUUBWMEIdFqogq+MC0qLlUXWar+DUWo4aDv4FZuEVQh1Pw/i7B0lzrAmEYblThRkYbDtvRJ49AMKUNBd4KkEDdnsxMnYpgJ1XL3/s7O7hqCjJFeIapFux+/x3u3LzF9MZ1nv7cJ5mrJWeCLecuNvAtnIPptSQgw6L3j4GIj8jMinMsB5IeOgbiYkhipAX7v9zl1kuv05aeX//tX2V0eYT3La3f5ZnrJd6M4oIJNpgHsRijtvChMdjNJ3m8TRFcCl+d7GpPRbCfuHGZf/aPf5t+BpEcMD/5X3/GN//sW3zmC7/Lb/83v0MY6fEB53P69Kx3z8sDnUfvwpflz537qFD42f/7Q779o++g05J/8F/9fabPbhFC3MBCoNSj34MnGZEYgy+KAnUXJHEkTf1UhEKEw5OrB+NU3i0RqIq1CLbBzuJNxu+/RHXwIoVrkao6jcM/Ih/hk8JgWt/i6uINvFcmOqdwW3SflnHxxArEuKoFVMtTDLc8TnSGS/oMv5OGh0/58dYNIWNspLQZkzDDLQ6wpkF4HAX7ESIwtgWjZpdZY7CYn/cZPXbYhRDsR8cpl9fJ8hAGMelDKIvyYjhazBBpEWrKStDypAOhzJOGnlB5Z1cPqxK9p50z5wLotXMxOxWwgJ30U8pkEmd3BxngWwRPUH9hSudDCITQUjqHPCahq8x5scxvPml19JnKxoKhYriuUueJx1KVyTLjZkguab+YCMIJKuuAMxasulSdcgYVFI8HcRqwWse7vkXmyeZwjrh1edEn4MwHpvZAxepPECqIur6uM3NRWSbdGEZ7wmKECzKTPD/MjKatL4ZXPPMhLEsQyhQxeNiJYRbsaTOwrFmymdghSKjbk00Ls2AzmQ0iCzaT2SCyYDOZDSIL9qy5IL3TM6dDFmwms0FkwWYyG0QW7Clzv57GmczDkgV76ggimlp2koOxmUciC/YMMIilhTnbP/OIZMGeMl2j8bZpLlDRQ+a0yII9ZQTFuQJVxZUXpOFY5tTIgj1NUvfFpolLb1p7OstFZC4OWbCnjIXVJRsymUchC/Y0kbgyQCbzUZEFm7kvZqe5VGPmYclekMwxBMyUX/7yJq+8/DOeeuoSX/rVzzIej877xC402cJmjiFwcHCPH/3Nz3jlldfZ36/JAeTzJws2cwzKdDrh859/kbIQ/vRP/w0HBwfnfVIXnizYzDEoqsInX/gYl5+q+Ff/6l/wx3/8P7G/v3/eJ3ahyXPYzH1RFZ5++gpFqfzJn/wJ3rf80R/9Ec8//zzO5aVHzpqzs7Br05/sd9wc5vMZRVGwWMz5+te/zuuvv07btud9WheSs7OwwfJKZRvKjRs3+MM//EP+7M/+jOeff57f+q3foigKQgjoCdYLEkk91W3Y+DPzIJydYEUQlfRhXcQPaXNr6z796U/zwgsvAPC1r32Nd955hxdffPHkvZa7Ggg5+Urkm0NcalWGK35zcuN1hnNYg9T1X9PyFRcC6/538uUZzhMzoyxLptMpf/AHf8B8PufGjRsnsqz9PiX2ara4NNpHeLaPK0IIIVZrpVvgpG/fmVrY4D0ChOBXVvB6otnwJTpEhOl0CsDVq1f5/d///UcaDke0X19G5WIEKlQ1vl9pKlAWJ7vuM/USS14fdaMRET71qU9RFI9+22zuI+wjIHf+z5wVH4VYMycnCzZzblxoK3tCsmBPmegZF8xCDmBkHpks2FPGzECsD2llMo9CFuwpE0KLiGEhZwZlHp0s2FMmDodjPo+4bGIzj0YW7BlgFlAhN2HLPDJZsJnMBpEFm8lsEFmwmcwGkQWbyWwQWbCZzAaRBZvJbBBZsJnMBpEFm8lsEFmwmcwGkQWbyWwQWbCZzAaRBZvJbBBZsJnMBpEFm8lsEGcqWNHY2tKCcZF6iecq2MxHxZkK1kJspCzOXZhG4rE1jBJlezGuOXN6nPmQ2Ayaurkwq2GZEZtmZ7FmPgLOXLAiQlGWF8PCGgQf8iJgmRUEkBPeEudiYePXBbiJBZxzgyUtLsBDKvOhmBmqJ7sXzsFLbGCBC+F16h9OQnbIZzpEBD3hw/sc7iJB1MEJnzAbhxGX2rwgiz5lHgz/+C83OeAiWFdIkxWJ3vGLcs2ZU+VcHvsXadXtCzKOyJwRZxuHNRvEJS8Ag+dS10w8061JnhyPF+1NkUd7iJ+pchQQ36JckCGigKWkiegpvgDX/CBIfCeCbOaq9I+Exai8plvhYa/+bE1d8OAbQmi5KDevEUcUvmlyPLYjLUofb9wLklYi3TULYoac0GCdnWDNEDFGZREdxE/wJxTSV/y3YOaA4uJZk2MI3uMCFOHkCQSbhoVACKG/7W0T4rAWPCrCuCjO+tBniqYvDKaqjMXh1PFEP6UegE6booqYoV2g+iIgimrMoTdZPtAf9urPNKxjEm/e8ub7tD/4Pvb0ZQCcK8ACJoqoI3jAG+riTR4wCAFxjuA94hSaBhPBOXdq56tVhW/ah0ijjGM9UaFdNKgIlw72eOHyhJ/u7SMXxZx8CEFgIdAISNF9fsaT/ECTFOJrMLwI7eMehzWgJjD3DW9993u8/r3vcWcxI8ggTdHi/wxFcMunj9lSNGaAURQF3vtTzUm2ENL+H1ywlqxGKcrElVwZTxn5hsW4Iiic3uPl8WZ4e4qAqDEdjdhqPPWdAyQskN7udAwddQ/5OVuAM41GDO7PtXtSRNG799hqjcIMHwKuONl9e3aCbVsW21MWl7e5sv0UO+K4pg7rfPxxK/qb/ojr6Z7BkiyZnfYTORiiCg/4NDSsvx5LE1nzUBfgxxWND5SnesKPN/3nFwIqArMFb37jr/neyx8w3nuZgjndB6/durpmhIcYNosqktzQhpyacEWlP04IRuFKgm9TnrD250JwqNuiDjuUu8LEXQcNJ54JnJlgtSz55D/8L3n6q7/BeDyNuZS2OhAy64Qa47VRKJ3/O36AMYZ7NkPLEJZv/oO8wzHOPEj0N8EAb4EbbcP46tVTO9fHneGjtRqXLEJNaI133/olL73xY7b2f0Jhs/5tVlUkjb5CsAcvFpEkJE53eizdsUQIPlCUBb5to+c7OZREFTWH947F+Bp3Ln2evTCnxT2oDTjEmc5hy0++yOWPf3JwUz/hDJ5G0yOGSheN7uqf/fhlxpcn3F00fO5v/Rq//eVfx83eQ0K9IkzpYj8nya+Q4RFPDwlGs5hTlAXBPFqW/QMDQIPRNB4/vcLbB9v84Btz2ncOTuweP/Nc4gsjVli9Xy64WGEpusvXp5TTEbvtHluf+hU+/XdvxLnDhsbmYyeV9PmKrD4mLLVDco7izRn84Ec07+xRlifzZpxP8n/mQtLdyK50NL6l9oF7DiiETb4VP+xR3P29UWG/WRAw2rDuYHswLpC5yzwuKNDOF9F5eCHuQFv+P8S0xM4OP96piZkMgEFVlYgoFmW7oYPhB8OWflOiW/nkV7u545DMxtILVIihs/M9nTPDAvQRyxMOibNgM2fG0K547/Epv/aEqREbQ5/cI/RhwhPqNQ+JM+dDUTg6CT+pQh3SPZTatiUE6wX7sIPjLNjMuaCqK3frkyzaLrYsCN57AEblyaSXBZvJnDYiyzk7MW67WPgT7SrPYTOZU6YbPagKThVRpcgWNrMxmNG2PiXlP8kBnVVCsNTLKuB9TpzIbBQnTR3YXCwACEVRUriTSS8PiTNnRi9NEYpCiX0XnnQLux60SmWDcjIPebawmbMnra1UFA5XPMkl/V25VkwOcSqoCG3bbljn/8yFJphRL2rqusVOOJfbDFatqw8xYcI55aSdjbKFzZw5KsJoPMbsSRbrYWLChMfMKE9YZpoFm8mcEaqpQ4UZdfYSZzJPPlmwmcwGkQWbyWwQWbCZzAaRBZvJbBBZsJnMBpEFm8lsEFmwmcwGkQWbyWwQWbCZzAaRBZvJbBBZsJnMBpEFm8lsEFmwmcwGkQWbyWwQWbCZzAaRBZvJbBBZsJnMBpEFm8lsEFmwmcwGkQWbyWwQWbCZc8HMEL04y3R8VGTBZs6cYLEjvlzQ20/gxCuUXMx3LHOuqAiqjjBcNPUCISyXAssrsGc2A7P4dQEF+yhkwWYyG0QWbCazQWTBZjIbRBZsJrNBZMFmMhtEFmwms0FkwWYyG0QWbCazQWTBZjIbRBZsJrNBZMFmMhtEFmwms0FkwWYyG0QWbCazQWTBZjIbRBZsJrNBZMFmMhtEFmwms0FkwWYyG0QWbCazQWTBZjIbRBZsJrNBZMFmMhtEFmzmzJHcivjEZMFmzh7hgvQPP/4ibaXl/4P3/8+CzZw5YhBCQC6iqRVBVLC4TgmCkQWbeawxoG38BRgbH74+AUR0sHKfAYEHFW0WbObMMQPnHE/+uNgGX8vnk5n0l24PuRxWFmzmzDEz6roBe9IFuzpZtwDe24mXmoQs2Mw5oCKMx2PMHuHO3Sik/xbn7Se/7izYTOZUWVpYEVAn+BDWJgPZ6ZTJPCbEOazRDYcF7z2Fnkx6WbCZjeejHlqHEI7cp5k91LGW23bfhbIcUVQV1nvIu3luEvZg/93xut+ZGcXDXkwm8zixflMPEZFjBXbc70WEEMKRr+9+FpEHjyGLRK8wYAjBoCgqgkWrayH+xWS5XzPrz2F4bFXNgs1sLkPLs/677t/rwhqK+36iO8rKdtsPBWtmKUR1eH9mBsEIZohoDLeyFC8WBSsqYEmoFo48PzOLQ+n7vyWZzOPJupiOEtdRAup+H0LoRTkUX/fzcVa7E+cQ7/2RAjczRAURxbkCJMagm9pjSaBN41H10do+QAZYFmxm4xgKC6JgnHOIRIfO0PIeafXS904cw/3124ugRwgnvtzWhH70AyK9AkTwZvhgqCoIzOctgQJ1ilggpPNS1SzYzJPDuhXb29vj61//Om3bUpYl3vt+u2BG27YAK5bVp/mhU6EsStS53kJ2+2/bNgpalcI5qrJkUTcURYEgmIXoSlqZQ9uh4bL3LaCo22Zv8RRmY65evcq3v/XX/OyH70OzTwg1oq5/eBxlxTuyYDMbw9AZYxat1f7ePl/72v/B7u4uZVn0Q91ghrdAXdf961UURCiLgvF4zLXr1/nSF7/Iiy++SKVK61uausG5AlElJPGrc4g6Xn3tZ+zt7bG/t8fe/h51XePbFu/jl4WACGuC9XEO665B+Rma8reQYod/82+/Q7P/fVy4hdDgipLOW5wtbGbjWRdr970oS55++mlGo3F/owcLWPdfcvgIIKpgRlVVAGxtbaGqfOITH+eLv/JFJin7SkRX6hLMYDZbUJQ7vPvOTe7cuc2dux8wn89YLOa0zYIQPBY8h5MgDFTxdoXGnmY/7GB6ianuUIyeYeQqlJplKsVSsEcNs7NgMxvDMOQSh7Bx6DqdbtM07XL+ammei/XpgNH5s8ztVVXmizk//elP2N3d5edvvMGvf/U3+PiNG5TlanrCwazmr/7qJX7+xjvM7s2ZzRq8F8Ahqogqmo5la15eYxkiAkW0wHCoFBRFiYoiOCROdTELvVDXvcQikgWbefwx676W80XvPSJKCIGqKtne2mZRL2hbT9s2BOvCKRILcHtrmyywD+CF4AM333uP3W/9Ba+9/iYvfPKzfPKFT3H16lMYwgcf7PLWW2/z+ms/Z75omc/mLBY1ddvig09hmICI9bHVodCiaCX9p4hpEmZ6mNBZ08H2RzjLup+zYDMbQSdUVaVt296KeR+HsAaoOkR8tE4ppAKCiPWe3N5pJUJXkhqCp65rbt/+gIODl3nlJ69TlCWj0RhVR9t4mqahblrqtqb1bS9Uw2K+YADMji4YNMMkxV6J5XX9wFkOF7AP58Ddz9nCZjaSbi4bLW4YzGujU6kfSoogBBBbGSZ3+0DAi6FiNLURggEHeK+4wqPOJYeVEl8ch9+tr/GhJViLt4Zgcd7a7XOovSiyONaVLtDK0qqSNj8yGHREAkhOTcxsFEMLaRZSfalfxlMFokWVNOykb8VyXFJDILZpMe8J8zneG87N0aKkrssYNzUwiWmFTVvj/ZwQGkJoMfNYCINx++oxCCT3V7LIwQgETIwgaZ59TBn7+hwW8pA4s0EMkxyiNixZWc+wzUo/pJRVyzqkExNKGjIbIXjadoH3LepL2tb1iQxmgGh6QNSYtckzvIzBmlm0pCvHCTGHuJcmadt4vscJ9ri5bBZsZiOJNzyQhNYJVyRaMuywWI9MZwzgg0fVQKNPV7SLoQ6H15BscRwGm08e4ZRwEQJiq9lVwyF4N9cVSc6n+Bf6U5LDr10dUeQ5bGYDOSQ6QvQKB5+EGz3BiPXD4f51ZiuN345KU1Q11IU4H1YHuhRtJzxLYo1ZToPKnrB8iAyPYUTPdMycSqIN8XzikDw+Cg55l48QbRZsZmPpcocXi0UK86TEiRCSE2kg8M7KhSOsLN3wWtJQN8TspuBT7m+KoYr1w/B+WNvtftBFYlVotgxJ9XHhbjAcq3RIc+/18zLWHlCSh8SZDWO9iqZLpuhEMqzCGTqojnptv0+Wmun6BIf0AIjOqegpjs+DzoFk6SFADOd0w+HBeaY/DbzDSySV7hhp3iuD4XG8sLhvGf4qD4kzG8SRnl6RPlFfVfvhbejFaUdbq7X9RNEKIVnPbt4qQUjjWFQ7azgQKyBr3uHhud33erpdJefYcPPjWrVlwWYee6QbRh4hChhU1gw6NgxTBD9UsN3wWdKwNnqdooAMIIWNgvbzYzliCLtejrccbt/v4pbXuPLatX8LeQ6b2RC6ME7HcMjbWVgYJMsP7v6lpV3uaz2+uTrPBdFhOkNSrSmiYem3WikOWHUOrR9HjjCX0VucAj1rmVjSPZ1SwsVwmJ0Fm9kQDkUq+xu8czgNq1z6uOd6WMfoi8XjXo47lDGULRIGecCD80kbhRBivvChhP3hKS8L3rtqIgZD8PUQjgweBN31ZcFmzpWHXaoiGp6YvDssBDhc9H1ECMcOW1g4urdTdCDJ0rNrJGdTZwkHrzNSUftRCRoxccJIKZVifcgpmKFdhvHK06F70CxNc850ypw5a/dk/N3D6TXOZ/sSuWUXiU6w/RBXhK4etjv4UWLtnE33nWn2FvF+53VMi5gYw1l9fqQ3Igp1uF9b2VcMM3Wvy4kTmTPmqOGn6pGD0gei0+J6YXv37+XUdG1YPDijpVvoKOs4mJsOhqbDXlAPYq3vew3pQpZWe/XaVv+d57CZ8+YhLexhDmcuQeooun6o/u+rXqN1C9fb3bV5ZUo9PnQsOF6oNlTh4JTFluZW+u2WD5mhcJde8izYzGPAUEaPvK/uDl+zisOso+O6Gx5yEg322YeLBr8/Ktf3yNCRxXlwH3c1I2CorT0qBs6svuAgbd89KbJgM+eGQR+S+cgZeIyHCRQc4xyiz2Ravm65q8G+up8Hsd2hUI90YJFivbqcCffSP9LZRJ9auZ45lQWbOXO6G308LhmNqo90WedOVCuZSOte3bUh8fJ3DzG07f49mOOelKOstnSdKNLPKtHEZsFmzgmhqX3fR/gj2WN3swMmq7lIq9UvRwnzeMGtJkEc7Qn+0FTEQ9PYoxItVjeUQ6OEvHpd5tyIFTAPtKUcb/k6Z8zy5+ihWU+kWP8+nHt+mOfrOLEukx9WY6Ur23R5xsvNVo67HFZDZ/kPpSkOXpgtbObsMaNtPYb0XfgfxV08zCEWWUZVDZa5ByvJyIZq7N7/YWGYQ+EbWf6+O2VhKebDoh1mXKVChJQ4EafUx4eUjpoXZ8FmzhwRSWvhkDobfugruJ+gu3V1hvvvhCJdhkKfObTcZRyW3v/IvVgHQl3NP2ZgJY+6luOv73CG0/Enk51OmXMl9lFqBxUu959Drsz30viya+VyZJZRZ2lXApurQ2cjVtj0aYD3m4Ie4TW2FK6RI+bE60kXMLD6gzhW2sWxcd3132fBZs4FVShK90DO1XVBdhZPUlvToYXth5HJKsu6WFjqsnP8HGfg4rRSljFUjhgix4OuGMrh31UkOsAkrj6w/FmRoKjp4eMe8XDo9psFmzlzzGLFjG88PnzImJRu6jl0xljvbPI+UJZlL9y4veFDSH2UurrWtKgyUYNKWvbjiCfGiijTcQa2eZlO2Q2Pdfm37vXD7+mUlx0Vu9G0ddeyfNjcb06dc4kz54TRNm0akj6Yp3jogFne1NFudhZ2NBr1vw0W8N7jfVfV0zUfj8Pg+zmKDmUsHZVEQefL6no2pfI61oR31PRbgH7dLEnCj38aFuIfRRZs5swREcqy7EtBHwVV7b+W5W5xSQ91jpKUCph6PdH1EbbDq+Gtn+Nw/inp3ytZTen/aTbc/25lGJvK81bovcsCoph1jc8Pt0hdJws2s1GshzuGDdi6vx1VQeOci5YYOrduL+Ru9YBu/8OKnMFO+n0dIoWMhu6z4TmFPr6UviQOq+PiWJ2FHeYQH/8Uy4LNbAyHM4NS2l6yrkORdQ1YDu2DlK4hgqrinKMoil7s3QNgvQ1Nf3zpGrssCwkOGdC1zChJYl6O5LuHTlz1Ls5j18JOx5AFm9l4ugL21ST9lOi/tm0Ua+dFpt9+OKReJuAvW6Z2P3ftYHr/UbDBfPZw8++un/HyWGDE7ozxcC2CB3QZXuJ4B1QWbGYjERG8D4eGkMMEf4FBnHX5dyEJbSVEM0wvTP2TiqIfKi//tvQaWxJuNwTuKo/WLawRkCB9GEoQCnWxaHcw746vGbzuiKFxFmzmsUdkNbMwDlWXN3VnXVe8q9a1Ij3cfpRuKHvIgi1F08dRj7C8cUvDgq7MqZ1zvVVeDs/jKgKEEsMhyTml6hAcmKNb0tLSea/X2PbHzHHYzCawnunUZzLI8ZZoKdzj96kaxRMXiI6WVDXOaVf2sbZfSw8Dddrva/i3bg4c/5aGz6EiWBEtrYEQPdsEBVMsrkt5zGhh+XMWbGbjWJ9/Ar34jkpaOFSvanH5jW4Ye+/ePZqmpigLCldQVaM+GUNU+1DNsMjg2HNL2yyXqUyrEISCxmsSrCAOHA6kgNBiJr11Pbbqh0s77nYAABU8SURBVDwkzpwzwY7qvvQQrw+BoiiOFOwwj3hFtF3iBKTXxjjoqCoBpa5rnHOUZbmSBxxfu/zH/Xy669VDThVnrh/fqwqFFIgrIXiwsGKZ1x1e3fVlwWbOle5GfFDWq2W6JIzOQbSaVjgoaF/bT+fVhZgm+cEHH3Dr1nuEAFtb23zsueeiOGT12CJp1XZb/T3DbW35e7O40rua9MNhJA69y6LASRWHzWlx6KFgu+9D8WbBZs6epaF7qEyn7iZeJv/Lylx0xZG0Fh/VPtQTbaNI9124cuUKzin7B3uYwaWdy0wmY7oG4EN6h9CR+ROdNU4e6LShimI4nCmxobhFR5TEebBIgVgRl6zski0GQu2SO7JgM+eCCgTfUpbFsTmz66yK8ei/998HWQqCpsRBGTwolmIOZqgWXL5yhUtXdpISU3KELYsD+td0YSGOttpp4z7cI5IqdBDQ1Nw8LSTSR2pV42LQKr0Hu8/M6kYBIdC2bRZs5uwJKVnety0nSyaOyfxdXHOlMECXifRddY6Krjhyhra3r58Xh4hL+wafEiKWwh+sxJ7qcT/0zFPMNWVLgHWLcy0932aWYsIxwUL6bVeH/Z14s2Az50KXDvigrIc7hjdzDMsYVVXFxZdD6BMROpHJsZ7XzoKu7ltFOGr+GofCq7nD90PS2q/L85ck2Jj4cWfvLovZXcaTEVtbW0wmk3Tsw61T85A4c67Yg1ipY+hu4s7ymFnv1VVNlTmszmmHTqFD2U/dhFoEUVtxKvXHG8ybH9S33c/Thw8PUVRjTPbmzZu8/YtXGY/HTKYTtne2qcqKyXjM1tYW0+m0LxvMFjaz0YgIs9mMl19+mbZtuXz5MpcuXWJrZ4fxeMx4PE7F5ktnEEDwQ+fVsDB+aFKPPh7Qt1B9kPm3pMp1JaUm9n+I3uPgA/P5gvlizt3du7j3HJZyo6uqYjqdsrO1zWhU8fS1a1mwmc2ls6oHBwcA3Lp1i/fffx9xMYtoNIrDzK3tbbamW2xtbVGNqpVQUgihM6wr2VNH0Xl+u3VbH/QcpRNrX3QgqeOFUZQlk+kE7z11U2NmjMZjyiJ6jRezGQd7e9SLmp/+9KdZsJnNpIu1FkX0NE8mE1S1r6jx3nNv/4CD/QO4eTN5XQtGo4rJeMKlSztsbe/0MdyyKFDp2r/YIOk/OYmIVTaIkDa573DeGKYsDpxWROOtTpmOJnzlK1/mK1/+LHVdc+fOHW7deo97B/do6wbfzc3LCkHwwWfBZjaToSOmLEvquu7Fq6JUZUXhihhAWVYNsJjPWcwX7N69i6hSliWj8YjpeMJkMsI5x3Q6RUSoypJRFRMbQjxod/D7CjY5eaODqss77v9mqTWOi32tfEAFqqriYx/7GDduPIf5wHw+52Bvn4ODfWb3ZszmM/b39rNgM5tNbMQWl/sYFrB3mUGquqzOSXHQLqwTvGfetsxnM+7KB6mqx5hOpjjnGI8qptMJriioypJqNGY8mVBVFXRx3e5ZQBem6drCxNhrdBJLaiEzCDmp4NRFi26W8o0N7w0nyng0YjIe88wz1+P+g/HuzXezYDObjXOOg4MDJpMJzrk+6X4oXFjrkZTmqV1VTiQNgc1om5q2NurZPfb3dgEoXIEWBZqcQePxmO3tbba2psm5pfgwEGxK2OgarflkYzvvtTrFuTSvNQXCsqPFYETgiVlamhIpsmAzG0tXbXPr1i329/cZj8dUVcXW1hbb29tMp9N+mDx8zdAqA30hgHOCc8tmaqrSpwu2bYO1DQCzA7gL3ExVOUVZMp1MGE8mTKYxFDOeTCjURSsrDjGHc3GOHELMRVbpKoGgq00QiBVCg/avBvi2pW2aLNjM5tL1cTIz5vM5ALu7u7z55ptxDlpVTCYTdnZ2ehFPJhPKslzpYbysx+nmxak2NRiucH1Fjw8hhYRkmelkRruo2a0b7t69G4e/ZiBQliXb29tcvvIUk50SdcJkMuZgZrR1jZZduKcbWXcdKcB0tcCgKEueefaZLNjMZrBehzrs8tCxs7PTe4rruqaua5qm4ebNm/38tigKptNpn1U0Go0YjSpGVYnTWExeOKUoXHQ2+RZTIZjSLZ7VrddjnXcp5TeKOkzScNjAvGf37h3u7u5heoCbOsLoOXCXmc3vsVM1GDWFC3F4rF1XDUvzbuuP0TQ1Irm8LrMB3K9ofFit01W0qCrj8XjZWDwNg5umoa5r5vM5s9lspWCgcMp4VDGqKna2pjz//HME3zKfzSmrkq3t7eiBdroM0aydU1cQ0NfepqwmE0fQmBBROkcTAu+89Ra7777KqLjLZBwtb1lVFEVJ4Yp+Pq6qccGwaLSzYDObw7AWdl3Azjm8930jtO5mh6Woy7JMHl76EjbvPcF7vG+Zz+fcvv0+s51tnnv2OgKE4GkbYr0qgm+baFRTi1TVTsBdimOy+EKM6ygYSmvQeM/IKUVZ0QqEtqVuFzTzBXt378a6WY2F88OvrkC/qqos2MxmMIy79p0cBl/dTT3sJxxC18xsucZOzOONbibnCpwr+jmsU6gXM0ajkqosWcxniFnfkYIUErI0LO4E361e14WOSCV1MRWxC/8EJC114JyLXmcTijQMR9JcOnjaxvBNzYLV1MmiKLNgM5vDoabeg+9dOGeZdih9eZ1ZKhAIIXZ1MPBJQH3SP0bhhLpumY4nSIqeFoVDU0WQ02g9+7WwutK5PiTblcqBSec1ihU+XR5zV07XzYdHZYmwbBHT7SnEyWtcziRlSoU2e4kzG8BwGDxscjZkWLUTtynoqnX6FEGn/fxSfSwiDwORtD6gTrh69QrmW8QCLllHX9f4ZEGHhekgafg9bLUKEjuXxhpY0qrrSdCQqoFCrAmuCvo5r+pa7e7g/M3yHDbzGLCsFL3PNmsW9ai+TmVZJm+wYiiWEuwZFMP1jiaVvrA97kdxYpRFybPPXscWC3BK4dIQuDOrFnOVLaRidCCIIuJiXDUVHqjFeCpmqDqCgYRotZcN1zxtUxOaGpFYg1sU5XJozTLsFJ1XuR42swEMl78YzluB3otaJOeM75qXmQJKcUSPty5+2+3bQpxbirVx2Q+F3Xt7ECxmQ6kQV5jrzKb0S37EUlfrmspAmi+H4Olq3eMSXCGGfFL6IiH0CRsqyeKa0dSLFc93N5qIFjxb2MyGsL78xdLJE29mdQ5XVWiIziYxIS7b3E84+9Tf+Pdu1TtDnBIsdi0syygu7z1qRtski8qycTisrgiAaEp3tChsHSwujUVxauiPGfOOfZpDG333inSCKysVmBGSJzsLNnNuGEbr23gjcv9StUOvXXM+OVWCKq6oMFE0gPeDFdcRtDOJgPfQtN0SkwGzFvPRMl65cplRNUIkyt0s4NThQ0C6tWUxLKTGakDMUIoN29q2pSxLJpd20sPB4whpHkt/PiIBkRCta3/11r83w7aMfcg3z2Ez54IBLOOYcP/567pneD3E44oCTBBXprlrqoRL4RfVGD6Jw2dH0xp+1kRPsATMGtq5p25bXvzkcxTOEXxgMqoI3qc5a8B8wBUuVvxYVyoXLTJ4sOjJdWXBuCwRFbxvcOJo0ehe7p1mkmbZhgNMUqG7LlurWhg+xuK/s2AzZ06cNwpOqj7Z/kO3t+VCy138M1bbxLlqiNNH0ooXBOualCuIomWJKwoEJWCUo1gU4JwADQYc7N5hOp2ymM/7flPTrSkCLGZzXOGSl9jwwfCtJxCP1RcQiFA6R+UcplBohabk/xYliPaiLVQp1aG4VSdaFxkePsVSwnEWbObMiRk9cd5Y1/WHbr8ewlF10fMaokxENAnfEbsoGaIFWpRoSgksqklKsKhwhSDaHTcQghBM8AGKsmJ3dw8R4fozz/Dxjz/Pe++8y/vv3aLxDZUrk01t0VKjYyrNYS1A4T1FXzY3mG93/061sU4F8d3v0/uy3nZmPfsxz2Ez50EsXYOqKimr8kO2To3TQkitQVvatqH1ITYi1/g1HW9RVGMMR2uKaEFRlPgQaH1LUY5pW49IwZWnruC9MZvPCb7hs5/+OPt7H/D2Ly5x5coOd27uU45GPPPcDcpqzPt37jJrmhjrdfFhgcHWdMpiNo+d/LtSvFAyGo1wqn0ivwEmMYEiLvMRotWVOEpW6LtTxDeoE+7h2X0WbOZcaNua1jd8+FpYS0+sEFedU1em2tISHxR0TN0KrhpRjqZxkSlRRuMxrW9pmiZZ9RbRCm+KKwq2tko++5lP8d//t/81H//YFV566SX+n//rX/Mf3nyD7a0tRtPLNK1Hiyk4IwigYyZbW4y3hOnWFnt3djk42EOdgARwgnMV4NIotitmd4Cj60ksTpDQCfbwSvHLy1+uIgBZsJlzIPY7CozGU7Z3tmlDMi7JoBRu+XMfiulmiaJo6SilIpjQ+CnF6BPMFh7nt8G2GI+3+MQnPsGXv/I5RGBvd87PXn2NX/ziTeaLmvndWJw+qsa89MpN/sW//LfceOYKivHam3OKyadopeD23g7z+T3uzC5TNyPMYGElbnKNa9evUZQlu7P38PM7tNbGPGBrKMM2hWynBI44323sEp7L+FCifZleSoro/M19csbSwda9BymghdjDtF/PZD4C9u8F/vE//wteebXlCy9uce1SoGlnqAr1omE6neB9GzsthOilVdFeAAGJ80U3ohxd4i+//QMuP3UVHwKGUJSxcP36M1dxrsB747333uPOnTtdYAcIOFUWizneNxTOUSqYXzAZVRA8o9GYpq5p2oayKOPSN13lTxU7GTZNnXKK4yPFty2Fc4gqwYdkZRWzCa09Re2uUxQzioM/pax/wIQ7KE1f7RNJKYz9j8tcsGxhM2dOCIZv7lDPW159bcFrqbLGuW7etxfNanI2BSPKVF0UryoqjqIwqqqh2voC4+2rqHO0TZOWwFjwwZ5HCBSFA65Rjq8zHlVgDaIBNWG6HfpFm2O+YZvcQmk1gZEwSvWowULKihJ8WsNHCpLnWOLCWhi+64tKrBRSUSQUlCEuelWEPRxzClKOdJ86OSjT0+UKQL1cJQs2cw4Uzvjqr2xx7amWUbUF5oCCEGKmECxv2rZtQYSiKmnqBh8C3rdgwni0jSsm/OV3f8D+3ZtYCNy7d8BTV59i5IT5oqFuWu75mPxQjSqauVAvalzhYoF76gs1u3fAlUvbbI+V9999h+2tSUqs6DovppXn4iQUkkjBcOLQwvXZTWKkRblivFZDQNJ6P6UahdzFwl1UGkaFY1TFLo1Ote/f1DRNanJuA8FqHhJnzgcjDkyFFDNdTt96hhamm8vWPmYq+TYa4Dd/ccB/9z/8j+zdW7Bz6Qqf+9xn+Ef/6Pf41S89i7iC927XfP+vb/HNb/2IH/3Ny+zv71MvFqgo49EYFWF+b5933/kln3vxBtMy8MPv/QWT0ahPvtDUtT+EaI0hDY2TyJxzTCcTRuMx2zvbjEYjiiLW2qoZakbwLQIUzjEqPeLfoWCXomgYj0rGkwmXL19GnXL7/du8//7tVDiwuihWtrCZM8XWvkO3LOqqVIeJf13rlVg03tI0gbYJOFHU7tDMv8/lyQ7W3uTnr77Jv/4/3+HHP/4Czz67w2TkmI6Va9c+4PKV91Hdo5nNCW2bCm+Mwg6o/Gs8s91C/QFXR68wHY9TinAqMhDp55V9ozVSIr8HN3fgS7Z3PsYzl67HBA8LmI9WNkhXNFAgrSE2Q2hxUjKZTPjil77EF7/6m2zvXObtN17lz//dv+O9mzdpfbssycuCzZwHw3K6o1ISZe17rJGJrbgLPNCgtChKJQvGOqeUgmAtNC0//tH3eO1nP6IYV2hRUpZj9vfvAYrDQ9VAaUhQ6tkMpzMm45bZwdtc31Fe/MQOpYvZR75pY+zXe3zr8cHTNQyP7tw4ty3UEerAvTsL6mlDUZa45KQy4lo6SoHgIBhiHhEjtMJiNqd0BZ/49GfZvnKVUN9jOp3E/lG+T3JCc+JE5jxYF6Ss/LS+VRoOhzgvLCx2MzSiM0dNEYudG1THoAWmiqgyKipcWYEIpSreB+q6ARezgAunPHXtaf7Wb/5dnt4ueOUH3+TWL15mOpnEDoqAjGPda4ixltShP2Dep84RsYjBNy1N2+BS60NLdblxyB9jsV1ZXhgU5FvTsru7y3e++x3u7u2zc+kS7998l1vv3UqFEcm6kkYDp/SZZDJHcr8k/+PohEGIXSOQ2MVBJLZ60cLRtg2jcYWoEfCYN5pmHhuGpyT81reApypGtD4Qgufu3dv8+JUf8fkXnuHa1csc3BrTWI1vmhQLjs3PrMtYspjLLMFQIzUGDzRtg4gwnUwZlSkNUh2tBcQHYvlt9CB3Sf393NwCt2/f5rvf+UvG41GcEFgsNuhisv3iXx/R55DJnB5J5aGrJxUjWEAsdmHwvmU2v0tV16i6mJ1UjZnYDuVohDgH4gGPK2A8rXBacbB/wL29Gd/85jf47jcO+Nu/9gV801CUMWHfgjEajTFV6rqJzb9dQVkqZXJGKdA0DaqxgH48HsccZzNw1mV9xEoeW6YamqQ5OcROixIt73xRLx9qXRF8VxMUQhZsZjNYb23aOX289xzM7tHULd4bo9GEoqhSsXn0zjqNFqu78RezGcHmNIuW8bji8uVLjK1gZ2eL3WYvFpw7B2KU4xFb25do2pbd/X0s+DQfFRyxrUtrgbIoYsO2wuHbuAzIsjxOYiw51uSlvm0xhEOanxIEH4yWNr3CUEklSN2QWDQLNrO5WMyiiJlFI8UHT9tGCykYeE9Ye4WZcffuHRbzmrKqGBUOrGVUOZpmQVk4QutT+mRcDrIaVWxdusSlq1c5ODjg3v4+hNigTRDKVKlTVbEfU7colg+BoqzAhLqt+0L0rq2Nig7OrBNyFGtsJRNSvW7oHV1ZsJmNRog1q3GO6HBaxLRBV6BOUy/vsLRmooxGZSxSt9htoq5nuHFF8A1F4egGniEYu3u7vHf7A7Z2LvHpz3+O6899jNnBAfcO9mkWNU5iP6nQesqioG1bTFosdUF86vp1bt26w5vv/CI6r3xsnVoURR+rdU5x6iiLAqexFU3hXOxZ3HvcBHxe0DmzoXT9hJu2YXfvLvNZjXNVqnctcK5EiyKmHWosGjABUYerSqbTCQK09RzBMx5XlK4rMIhphkVZcOnyJd65eYvdvV1++dYv2d7aZnt7i6IsqRd1dEypggZQTWV0cR/eG1euPs1P33ib1375FtV43DuRYjG+p8uX0lTT60TierRVSekcKuBT0oWq8h8B/MOh1bI0eHYAAAAASUVORK5CYII=;" vertex="1" parent="1">
                    <mxGeometry x="-214.0021875" y="-43.99668701171875" width="236" height="269" as="geometry"/>
                </mxCell>
                <mxCell id="9" value="" style="shape=image;verticalLabelPosition=bottom;labelBackgroundColor=default;verticalAlign=top;aspect=fixed;imageAspect=0;image=data:image/png,iVBORw0KGgoAAAANSUhEUgAAAOoAAAEQCAYAAAC+6uiFAAAgAElEQVR4nOy9aYxk2XXn9zv3viWWXGqvruqdze7mqoWSKErU5rHsESkZA8n64g2YAWzAGPvDDGDDgOEF4wHsT15g2IAH9nhkz8CWPQY0MjXSjMaSLYqb2CIpLiLZapK9VVd3dVVlVa4R8d679/jDfS/yZVRkVmRmZFVk9f01sjMrlrdEvP87555z7rmiqkokEllozMM+gEgkcn+iUCORU0AUaiRyCohCjUROAVGokcgpIAo1EjkFRKFGIqeAKNRI5BQQhRqJnAKiUCORU0AUaiRyCohCjUROAVGokcgpIDmZzR53Qo7M5SgWg+azeJTOKfKgOQGhav1jAN/6N8x2sco+f58GtPW7OfbTdg73oqqInP7zeNC0r4LjInE+aiRyMjQmSji+YI9tUb1XBsMRxtjdw1HFlZ7RpgOvoPVdeabDVbwqxhhEhJO+jRgreOdRBa+Ktea+nrsCzjmSxKIKqh4Rg7UGVSXLDEnfIFbGmxoVJasr3ZM9mTmiqqytrZN3cvq9zvjxo1jW0aiqv8fwXj320Kg+Fo4/yDopmmOrfEW/kyPmeFI9tlCvvXWH/+q/+22S/hUKcoyCDgq2b9xh584GWlVYIyiK976+mD1+HwWKCNZYjLE4V+G8P+4h7osgGGMYDkekaYKxBiNBbAehCmVVkuc5GAEVRENcThT6vR5nL5yle/YsA3WUfounn+rz1/+tT3JaPMh3bw742//53+PS5Qv89X/717lw9mg3mcFOyf/4P32Zt99RkqSLilJRIUZQr0G6AkK4Lup/zoAgRnCVQ1HEGrz3iAGnbiwMV1RYa098ACLGICjGKN4p1hgcju3t6/yNv/7LPPfMyrG2f2yhjsqEr/y5weSguo1zQ850e5zRK5jkCqUtKYynVI8YQSTcUQ8SgxHBOQ/maHfwwyE46yhMGFPPsj/nHDa3DLziBMQkdG2HjknJvGHbVbx7fUjxzoid0rMz3GKzSE7VcPXOpuEH15ZY2zGsbxkunD3adl757hqf/fxNBuUT5ImQSrjRCTp2CcOVcBiRhmsofFUW58KN3wMqijeKSoiPWC+Y5lo70c/fYw1ABc6imlCmGTujlK1td+ytH1uoSZqCPcuVK1f4+MdWObvsONdJufmlN3nje69y5unLXPnIMxSJIkbwdWCiuXtOIiIggndu/PdJ4yqHTSyoZ5ZvsyxLkiR8dF7BGks/yRhc2+DNl/4cm6W875//CVjt8sWv3eSr3yzJOudO+CzmS+UNlS4hZoXKHT2Ld/f2CNUlOr1zpHKXlWQHGd7GUIH3x3NdVVENwwtjDZWrMElCpR6PYowlFcEVZRhKHWdf90ME8Y4sFTqdZUZFn83sAqoX6GTHH/IcW6jNGG15WfjFn73CB57NSQT+/I1vU33r63zwqU/yyV99Dro2DK4PE0F8CIOQmXanIUQQvINwmAZ4/Q++xh9/7mvk2Qqf+sVPY851efvuLb7yzRKx2WkyqPWY0gCC90f8EpQwLBBLmlX8zE9d5hMfsfjBYxgt65ccfdvee0QFYxOsTfG+CpZVPYrBGItRxVUl1tiT9c4ERJXUCuW68uXPvc63bm5yx3my5PjlCnMJJqnC0lLOUt+SJYDC0tIKXZuy3O+RdGxrT6fpct2P6eeQ5hmZsYjzdLopkgorSyvk6Sq+ynCe2j06RRwnoCfB4zJWKKotLl5e5WM/eRnVy8zlDlxvwpdQjKC73ATvdhMjD+NqW/veTf7si98G7VCVjqo6/jaPn0fV4Dq+/tqA/+E3XqeXrHPO71B843vAM3zupS2+uvY13sUxaiLATP8AxZjg8hoDhBuArYNKJ+kCC+AJY5xZr0pFQUIsCS25mOW46zfw8gyD7Yr/+Te+xVbvPD+4VgIZqu5UiTTJQnAGUdLs6Afu1QHCYLhDWW4h5nId/Z/P9zkcVvzG3/8DPvvZb/Cv/mu/xK986qNz2/ZRcZQU1RbOL5P1c7wc/6Z0bKEWlSdJDGt3BvzJ7buIFJxJcx6zP4TtWrbvjrj9pXU2XUGpVe3+elTvDShZY8IYFgExiAppklCUrh4/ngwa/JY673X/L1kAYwweh9PwjuW0w7I9S9+fYVgNKb+0zvroFknaQSmoXInXWtingKJ0pHlGUVSUheOol4qoggf1zQAB5lO5FrYhIhTVOa7fOstnfv8Vfu7nP8xKz4Rg0wMXbLiCjAiox1EyrDySHP84jiVUVVjqOn7pn7tImp/FJhkA5/s93vn891h7910uPH6Bn/zQMwyMx+ERBOfdgeMFEYP3DlUwkoQglDs5oUKwqElicTOMx5yrsDZF8Wh9GstpxtYbd7jxrb/ALAkf/MWfZNvtUJQjvB9y+VJ2akQKkKWGwWBEr5sdS1bOe9SHCzhN0tYz07Y6e8y3eW2eWz74offR+X+u8xev3uGtGyNWnu0GQ4CGdNsxjv8wNJ6CEm4gYsJ1VdZG5jiVSse2qE8+vsq//+/+NKpmfBR5At+58Sf86Tuf45kXfpqf+ld+Cu2mNDHVcUBp2lG3zmYcVZeZPdIjo6ozJ6VDeqFVGCmQGnjjD9f4/De/CFh+7dN/mfzSE3itx/FHDcg8cMJxdvPwZ1kKOzsVkB9tawpiwBCKWPbn6O7w+59bYvVsh1ffSviLH2zzwWe7iOzu60HfH4MRkqCJOXlRxxJqYxTzKWOY5dHr9Df/gl75DElSIlnauone58gbod7/lXPkcHualJ0AfXeHS+XbFF7pJAXGgAWw8xuTnTzhU+/mBpsoRaHcvDkE+pMvmR052W/y4oWU8+c6vPlOj1df20C58HCrlmpr3tQQziPafGLhjZQhudsh1wK82zVDs/zULPKlPe2QjZak1Q5muAWueHgHNwfSVOh0hMGg5NbNbeYx8Ng/FXO8b7qbG86eyalKeO21WwxHD9d7Ua3vTQAI83CmTkyoKhZVi6+kdWvTGX9OB/dYVQHUkyQW5nJpP2g0jLtRzi4bXnjxaVzlufHuOmXROtu53kGPP8vIGnjx/VfI0z7rd0uGQz3mFudAa+fzmPdygkINdbOJTSZc3kOY1AfMrLeRfT9270PkuqrQ41eNPRQEi9RhkaefvsjOYMTt2wN2BidxQscXacOzz61irMX5hK0dV39Pp+emfz9ORqgKRhRfFviqCBnKU1CNPuttZOrlVStYK0eeZIg9oTn5J44fzyJ+8cWzpEnO2p0Rd9fLOe5j30/xyFy+2AEcZalsbM7zWBeDE7OoQpgyZq1FrD2p3SwUzQyh0lV4d0pNKrsR7ReeWWF5eZnNTc+du83FfxwrJRN/z+/mvdxLEHHsDIZsRqEegroG+Jhl16cHgSYWX7oK9adVqLt1QxfOpJw5u8LWjuPOndGxt3uSw5o8s3jvGA4LNjeKh1hAeDKcjFAFxFq0Tv6eBrd3HnjCqVpjT6nruysmAfq58NhjK2xtb/P2u+uU1YNNmB0GY4VOJ0O9srk5ABb1SI/Gybm+IuN62PdKvx0jwYsw1hx7Rv8iYER48uoSJrHcWS8YFYvrHYlAmlq8c2zvDB724cydky0TX9zvNbIvsuevJ57skqaG9c2K4WhxU05ZCr1+F0UZDYu55C4XiVM0nyPy4NgV6+VLFq+Otbue7Z3FFWqSQK/XQVUpy+ok53A8FKJQI/siAmeXLeC4eXPA1tbiRlONgU6eowiuqYJ7hIhCjRzIyrKl0zHcvrvFxvZooUcz1li811NZE3Y/olAjB9LrWFZXuwyriu3B4rqUBuh1c7x6irpL7aNEFGrkQNLEsLzSw3nPYOgWUgBN0ujMmRznKoajiuq0prH3IQo1ciCJtayu9nBO2Rm4VqOzxVFscyQXzueoKsOBUpWLc3zzIAo1ciBJIpw50yVNc7YGjso1AlgcH7iJG128lCEiDEaeomwqlh/iATG/OdVRqCfFI3JDt4lheTmlLCrW745wbnFP7OJ5S55nOJcwKLTus/UQjrc1xWpehZNRqPNGQr9fTnApjgdJYoSlXkJZlKyvj8IKBgtG3dySs6sW7wq2tgtGw4d4nKHZdRCX7rbhOY5go1DniI7rZM0jU99sDCx1E8TA5uaIqmos1OJcOk37raWuQbVgMKjLHR/SV2BMmItdV9Bi5lBOujif9mln3KE9rH/y4FtVngzGCP2epdtJ2doaUNXhVF0gj6H5pNPUYo3DOaUsZ1ue5CTw6kG1voHIXJoInMYpHouJyLjznXf+kamMEYFuN6HTSdnc3GZnGK46MYszx7j5qK0Baw1V5SkKz0OxQxrEKSLIHI16tKhzxmvdgPkRQQR63YRuJ2Fzc8DO9hzWZ5gzjW1PEkOSBl/m4Qe9dlerO7BL6oxEoUYOJIz9UlZWOhSlZ1Ro3WP5YQthl3FTF1HAhQWkT7oR9IxEixp5YHS7CctLCcXIt6a6LYYQ2ogIWWqx8uhd1o/eGUXmTqcjLC0JToW19cb1XUz3XglLaCxQrGsuRKFG7ksvN1w+nyM249W3ytr1XUChSkhhliW46tFSahRq5L7kmXD+XIoKvPz9HcpFrMwnRH2TJMF7U0d9Hx2iUCP3JbHCubM98k7C9es3H/qSEfthE0jTFOccRXG6lxSZJAo1cl+MwLmVHkv9nDt3N9nYmD1F86Aa2ylgLeRZB+89RVmd+AqAD5KTE+p+yypGTh0KrKxkrK52qCrHW+8MZ35v0+74QWCEuijfMRpVCzl39qic3Noz1K2cdT6L5EQeHkIQ6pnVHmma8/YhhKrqH9j9WgTSLMN7paz8Q4v8isi4hFR1PmvjnlwJYbNY8XuMsEDzozeiWO4mdFKlKEreXZtdqEZsbVD1xC2rCPWq5obxUvAPAe99WGmd2mAtelF+miaAP/nlwhcEVR/mQD6C96c8M/Q6Cajy9jsbM2uuLMtgVZD7rDh+PJRwMVub4dUA8tBqMowxmLoWWlH8HMoZT+6T846qqjBikBP8ghYN73WhZpbMizQV+r0MYwxvvf0O5YynaBOL2HDnOrkxY5j7GaaJC6gE2/CQbpjeeZzz4VhESJIFt6io4r0LliZyqrEGlnodrDWsrW1QLFiL30akxphWOfzDQYzBmmDVBZmLQ/neMXWRYyHA8nKPNEkoS79wzcOCNLXurvCwj2b+RKFGZmZlJcNagyFf0HactSV9BGMEUaiRmVleTvHqUCy+WhyztbsSfIizeu9xp3gh6WlEoUZmptM1iCjeW9xCVRM0vaqE1AhlWT0yPasaolAjM2OtAVEqtYwWyKI2WODipT6lerYG5YLdTI5HFGpkZqROT5aVZ2dBC/PPrGQoMCzdArRjmR9RqJEZUayEVcidV4oFi/o29LopWZpQOVjAFsRHJgo1MjM2EbI8xYihXFChdrsJaZ5SVp7qEVJqFGpkZtJUyPMUhYUVap4bqnLEYFC0moWffqJQIzMiJBYQKEYFZbF4IhCBTh76sQyHFeUj1I4lCjUyM8aGlpzW2oW1Vr2OJUtTyhLKR6gdS+yUH5mBeqKaQjEa4iq3sEJNbOhSPxw6iuLRKXqIFjUyM8YIaWYRc7JT1o6DScJ80J2dEaPRgs0cOAaL+WlHFoy68seEifEKuAW2qEagKt14QatHgSjUyMx437TYMQvbXifPDFlqca7C+SjUyHsQEUB9mF+8oKW0WWbIs5SqLCkr/8jMeItCjRyK5sJf1H5YWSp0OhnOecpSH5kuQFGokUeKxBq63Q5lpewMH14nwnkThRp5pEgSw9JSytag5MbtEdUjUpgfhRo5JTTNNw9+Js2EK1cyAG7drRZ28sBhiUKNHJrQlmgxBDB5FHkmXL2agFRsbd871W1Ro9X3Iwo1MgN7L25jBLMgwaSqdHi3243fGqHfFUQ86s2eQ9/crnj92jY7g9OXtolCjcyMCOOexQ/eMN3bAnR7q+L3fvfb/L3f+Aprdwbjx40JP9TFGQA7g5J/8A//lP/gP/xf+aM//s6p6/5wMkIdfwZ1t/JT6m5E9uKcgpgFWP/L433FzXe3+dxn3+B3PvNt/vzbd8fPioJIPdWnZn2r5Ovf2GB7ZxX1vYe65MVROFGLKkbqLPnp+lAi+6BgjcH5CvPQpnOEm74xCefO93nyqcfYGXb5gz+6SVF6QBAx9c/uu17+/jZvvLHN2bOXuHLlLAtaqrwvJ3O4rQ9IRR65jnDvPcL3V1WKqiCiZNnD/E7DvpeWEl784GXSXo8/+ep1vvvKOgA6XtLCQN065o8/v8bOjvCBFy/yxBP9B3ZJ6pyM1IneV7x/NLuWv1cpCsUYS5JYOp2HJdRdD81YePED53j+xQtsbg35J7//JqNSsSk4dTQB3++/scNLX36Tbp7woz98kbNn0od07EfnlDkAkYdJWUmd7nB0u4tx6Vy92uXnf+4plvqWL3zxGt/8bok3CSoZWEupwu/+02u8ee1tXnz+HB/98FkSK6euQfdifNqRU4DgvWc0KlCt6HYXYziTJsInfvwsLzzf58a723zmd+9y/d0ONrtAmnV47R3lS1+6xhNXz/HzP/cMV690gbpH8QNgXp/SiR9t9HwfHcrCMxyUWGNYyhfnHn/lYpdf/Ssf5vzFVf7oC6/yhS8bOt3HWV/v848/M+LGOwVXr3b4xMfPYseLCp/cjSaMfwWZY7bj5D5tCS0xXFm9Z9IzIjJeXfpRPOW1OwVFoWR5SprOdukYCUUH9acyh6Oo6p+9/MxPXOSXful58g68u+Zwepbvv2L4s6+tkWd9fvnTH+SxS9057H8GtFl5XhDmcy2cWB5VEKy12DR5z0R9vXOohvUxRR49pa7fHeC90unIzFFfVY8NU83RuRQZTE/3pYnhV3/5Mh//sTMU2+9icVTVgKq8ySd+4hK/8MkLQTRzOIL7ERZTNkgtr3l07D+ZbFj9OXrvZ6oJ3e8Vp0veijEhh+e8Rx+h7gIQrMLW1gBVR6cHdsYrRxCsgtV5yaReV2MKj1/u8ev/0mOsb17j+s0bnDu3xNLFil//tcdYWcrq4zlh6tNUDWJVnU9V9MkI1SuVqyhdFfKoBxzqQSexyDZpPIGa3S9fUAxa17CdrtvM/fAKg2GB90qeZ1g72/tUNRTCK1hrxzNdjv7pyJS/mkkCwkdfXObXPnWG//eLb3LxovDB913lxReWUUIrmZOMIWlzJKJ48fjgA2PS418LJ3TYgrEJnSSla9OxCzD9lafzxzBxb1elk1jSumxSTpk/cCD1Qt5VGVx7m1iMzHgj9R5rLYUrGZUFML/voH2AgqI48szw0z9xiX/5V67y9mu/xz/83/8LBoOd8J2d8FcSjssDHqVCxePZrVY8juE5sUIw4zxn0w4XCk/1nZdhqYskBjWGMHxTxNr6IgilX+GNofRLnQtXh/chs33SeIcaE45rljG1c6gIYgxohUhCvyh5+ux5Xrm7juriREXnhUhoE2oOccUbK3iUtJNjjD2h21ddAEGwrP1uyoeev8rm3Tf53/7+3+XsasZ/9rf+Nr1u70T2vosCFdYqRipUK5wK5RzWwDmxMWplhPXNTV7+J/+M9d/5x2z6Ag+kedaKggW3aOwc6/jRehqVHjRfeM5o3bRrBltYh98Vj5fw17JNWDYJHZ8w6vTgEWkB0qb5Gg4zxU29IqIkTumXjnJ9B6oRUruFe19c7+GwwUfvEGPwrkKSBI9gxPD42bPkacp//V/+N5xJUv7m3/ib5HkHLSuMkRO6rDzJzpALnZyOtYCfS872RISq3jPq5djHLrHUW2ZJwdVRUGOTCYulYXyx51OTeszRdGhXRAwnpVjVEAjSGWf6qCpimmP0iCoJoJWntBlpf4lKhAfgBzwYWm6uGBm79TPJqba+Kzblzc9/kz/7/hbp2rdJtBinsiBY62YsO4tQx9eQGBRHkmRoWVIZw5Z4RmfOUV27zkefez+vvP4qH3vmWd750pcZvPY6vHuL1Du8OkRC0PO4YaZw2OFaHo16lLdW6NkreD+Yy/KPJyJUsYbHf+XTnP/xHye1afDdRVDna3e3uXM2bzjoQ1LUeyRJOKlOVV4Vg4CRYAHu93rvx+5fuLg8YkKEzxvLQITs/NkTOdaHQXPL9NS54mrc4Pe+b8y6CTYzVOsD1q+/wzdf/RbdjZfJpdx7w5ZxwHSm27F6j0lSRITSlSQmgdIjWcamKO78JX70Qx/iuQ+9wN/5u3+HtevX+frLr7D5yvfpDkd0gz8Urj0RvOrxEp4SKreMzXH5ZTZ7H8R1LJVziFnU9AyQPvMM6TPP7H2wHSo9DMcLE86f+xzPA0qrPxAa4aiC8x5rDImxB3oLTaTXiOHKkyskXcPORsEHPv5DfPi5D5L6W9h7iha0ttyzfNGKr1xYVkMMTl0QuTMkSYLzivb6LD9+lW0/5KWvv8TdwTY//gs/j/2Zn8V6T6KKWIOvhzvHDv+pUhUlNu/h01Xe3Vzhey95/K31Q43p9+PBzio86vEukkhh8Y7nhGmEWpQV3iuJPTgoJHVVGsD5x/pUueGmH9H9wBM8/y9eqiOjx7Myes94VvdOBq8Dfee949/7T/4W67du8cKP/lgd/KtfLxJObJa4xCzH5DVsXwzyRsHW119G8ixUZ3G8yyau5ha5P/U1nWXhchkH/2bBGEqUHefYACRtElv77mpmJi/8YP19nSYJ+zDWsHrpMhefeApN0xNd3ErGRyGUmWHHeLyRVn3x0YlCjZwo3isdhcy5mYJrx7mkQygn3Eba21laWX3ggT1jYDgc4t0iVyZF3vOMwxEi5DYhAaqqnPKKNoeX6d4KMQlpn4ntPIzou3dhHD2vTEUUauRkGdcMhtaAYXioTM1iyvh/M2323rcvTtSxGTo3dQLHJQo1cuJU6lErVFVVa/HeIsDDMv3dD1uku5XM6uu0IsxlXmoUauREaEvGAcZajDwyJSAHUBfpeBANgvVzmOb26BWkRhYS7x9YLehDpq47DnUUGBGy9Pg3qCjUyAOhXcv9aFOvJECodlKUojr+3OQo1MjJI4eKE51ydk/Se609ieMThRo5cZpCgNO6ktpRCCXEh5i8cB+iUCP3ZTxRhVAaeBi5Na1IVN8jBrVdn2TqOv+FbW4WeYRoXWVNl8XDKE5CPwznNbQmeaTZTTv5eqaXMTKX1hJRqJGZ8d6H8eZhJnZr3ShFhTR5D2UDJTS6U53PODUKNXIovOfQbT9FQrHDaVtG4jiEOdj133Pw+aNQIw8GAfMgel89okShRh4ITZePyNGIQo08ELz691R6Zt5EoUYip4Ao1EjkFBCFGomcAqJQI5FTQBRqJHIKiEKNzEzorBlTLA+DKNTITKiCc/6RXEn9NPAeKr6MHAVp/WFMQmKy0DP3EIbVGENZVlTVZHf8yKxEixo5kKZfoHoPKngvIOZQF45HSbIUm8QSwqMShRo5kGbiljFhXRdU8Socpi6/WY1PYq3vkYlCjdyX8UwQdWFd73q622Hw3o/naEYOTxyjRmZCBIzxoCXFqO5cEAPAD4xoUSMzYQR63RSlYH1jg7K8/3si8yMKNTITRuDMah9rlO2tLYoi5mkeJFGokZkQ4MyZHtYahoUSMy0PlijUyMz0uhlJ2kHpUryH2qosAlGokZmxiWCMRdIO5RzWU4nMThRqZGaMCTlRa0xoWht5YMRPOzIzpr5anHOHKniIHJ8o1MjMGBEQxVXVzELVA/4VmZ0o1MjMWCuIQOXdoZpKKyBWYmXSMYhCjcyMMUpiQTCU1WFFJyRpeiLH9V4gCjUyM2ki5HmKmJStrdmFqhqCUEVRnODRPdpEoUZmJk2FJAkd7++uz5pHVSrvSJIkWtRjEIUamZk0FYyAcxU7O7MJVev/l65CYzDpyEShRmYmsaDeUTlPUc7m+gqCTRK8agz6HoMo1MjMWCuoKs45yvKQJYQa7elxiEKNzExmBfBYY4KFjDwwolAjM5OmQpZCYlOqOB/1gRI7PERmQAElsYJNKpw3DAexeOFBEi1qZGasFbJMcM4xHMZpbg+SKNTIzBgDnU6KoAwG0fd9kEShRmbGGOjmGaqws7MTo7gPkCjUyAwIYLAGet0cY2BnMCTW2D84olAjM2MF+t0MsAwGFWXsm/TAiEKNzIwBlro9RFIGQ89o1ASUPLHs6GSJQo0cil63g5iUnaGyM4zifFBEoUYORZ5ZwFI5oSgboUbBnjRRqJEZCWJMEosYg1eDxmDSAyMKNXIo8sxixLB3MowSrerJEksII4ciSy1FWVKW0lrWIor0pIkWNXIobCoYI4gYqlhF+MCIQo3MSFhj0Vohz1KyLGtNdTPENRhPlijUyKFIUkA83peIiUJ9UEShRg6H1osYI62obxTpSROFGjkUIqEJtxJagEYeDFGokUMhEq3nwyAKNXI4ZM+v2dDDvuERQMb/mwtRqJFDYYRmkDoz3rmwwNR7CCNgjODcfMq3olAjhyLMQZWZbYWiqLqwAtz4on30K5m8U9R51DvsHNaSjUKNHAoB5DAiU1D1qHqMee9cbiKCeiWxyVw84PfOJxeZGyKzW1QRIU0SrLUTdvhRdIX3egpaD84Ps0TlfkShRk4cMQZB4tozxyAKNRI5BUShRiIngMjuEGEefkQUaiRyAggSikNkPmPUOB818p5FVe+ptDpSWaRqMKGMf+Gc4r1gTMI8AmdRqJFTQyMsXzcUbkTWFte0xw7aXvs9wHjb7e3Nsq3wOh86IFuDqiBYRCy+nrerXgGP1kmu+tH7bhuiUCOngLZQnHN7hKWq4+eNMeN/e+/HokuSZI/1bF4zTaiTj02zutPqncfbBKRuU9PtdTFmB195VIOVFWmEGkadis6Ul45CjSw0k4Jqfrz3e6ydiNQLLJd73muMuee1DZPvb0TZFnqzv+Y4DrSwqogYEHCqdcGDxY33RytFVe83WtTIaaS5bENJ8b3WEnbdU+fcntfArpjb/560oO1tTNJ+v02S8XE0jzXinfY+9aERuXoFH15rrcUgVE5xVYXgQQyqjqqFisMAACAASURBVN3NRIsaOVUER7At0kZczjnW19d56aWXuH379thSNmJN0/QekYb3h7/FCEZMEJ8RyqKgqqqwerr35HneGv8KRVmgGtqjBuuqGFNbW+dIkmRPSeSe8kjpcXd7laJIWFpe5otf+Ap//tXbiO4gxmNtQtVqOKX79F1t31iiUCMLg9b/1zAr/R4ruLGxwW/+5m9y/fp1rA0CqqoKVcVau2dbjWhtktLpdrlw/gIvfuBFnnvf+0iSBCuGEUOstVRVFUod07TepuPVV9/gzp27jEZDtra32N7epihHuLJEfahbbouzOQb1iuMMJn+RIvk4iPB//85nMeXLJLKBiAMRqsrXFvXe85xGFGpkYQjFAUJYy4Z73M08z1leXubxxx+fGum9Z3tiSPMcYy1L/SVAuPrEE3z4gx+g1+2OX9cIpRHexuY2ng7v3rzFYGebwWCbnZ0tRqMdRqNBmGTgFa8+uMV1BFdQnFMqv0JlVtjRPpgl8s55euYqVvqIFnX4aDfq2xz+fi41RKFGFhznHK52Nb33dLtdRISqqvDe3zNubQeHGqtnjGU0GvHaa6+xvrHB66+9wcc+9qM89eQTJNbscZl3RiUvf+913nzrJqNRQTEqqSpXu9AGERNWCsCBq4vwhbFUjQ37Uy94BFQwNkckjFXH4aPGJa9b20zOLJqMNkehRhaSZrzYjEGb31mWMRqN9rymEedkCsZ5T1VWJCpoIiTWsrW9w9e+/g1eefUNnnjyaZ54+hkeu3yJPEu5s77JG6+/yRuvv8HOsGA4HFKWQ3xV4KqSyjk8IHVUuEnHoIoYy263tyBI0V2xekIkWOpxeHP8jes7LTfcDlxFoUYWlsk0STOWbKzlpEib32O3WMEbpagqUkK3hcqHPGbh7rA9KHn1zetkeYc0y/F1eqcqq5Bi8Q6vHqcO5x3OV3jvxs3d7onW1nNQ94SuW2PQXRe3EeT+VVHNTScKNXIqmHRt0zQ0/267v1VV7XntngveK4jivMMai3eesijxXvB+h1FRkuUj0jRDBdT7uoIISlfgfYVz1Vis2lQzCCCC7MmthkCYb0/o0/p1Y9GF8elu1eH01NJkBDsKNbKYTARYGje3+WnnVxvrOkl4TV0VVIE3HmMs3itJ7VabJMWVQwob0jZBIAanUJUjvCtw9Y/igpCbw6tdX9VWdVHLyAqyW/xbv56xONuFE/tXSDVEoUYWkwmvshmnlmU5TskAe9zge6qG6kZsIhqKERSc93ipUHUYV2GqEc5arLG1UA2I4FRwrkJ9/aOuZTVb9UXjRO1u/4rGqR0LWnZPSVoF/OPDnDIxIAo1svA0F3g7ktu4uKPR6J4Ib/vCvvex3aQPyu7Us9IjSYLzBvUeb6qxSMfuqXd4dSguWMNWAcWesWhz3I2FpWnUuDs+HbvDExmYJhg1yaR4o1AjC0dTmQSMI78NTUCpXbG0n3AbC9hOhWgtVhWPq8AkCd4LggFxobyPUFiPhA6KXl2oHlINj9cCbG/Xe4+h1rPorkkNRzT+3dw8xoGlGT+TKNTIQjI5XrPWhgZprSKINtNEOm0mzPj1gKhHK4e1tfBb6tHaXdZ6jKtai7fZTmM6W9sNBRBSj139Hh94r4Fsp152N9SeGDBJFGrk1CAiDIdD8jwfj1mb/CpMF2nz+D3jVwXF102yqzDGNCaMZ8cCDEX21LVEY9dWAe/HRQ7t/aCgrcxL432Hp1rqphHl3lk5k2KN6ZnIqaJxL5tpbI3L21jWtvt7v9rZ8XPe4xFE6ulptdu6K6fdetxdt7XZxvgv9jwophXdbc1/xePHudRa/K2bxzSxts89CjWycMhuRcE9jzfj1Wli3O+xaRc+KOpBcaEsUBTEh7amElIrvq7DFbRlIetxam1dJ91qaUWEdwextM5HWw/stZ7TLGqz3SjUyILQFtjulT2Z+G+EOq1bw7TIb/v3eE9tIfhahEZqdzgU7o5/K2B2x6e0gkhtxvNeW68RI3WTM7PnvePjMX7P+5tjm7aiQBRqZGHQiWjq5DhznOpoubmT1TwHibK9zXagKexTgtsqTVQ2TAAXEXBhPs+4/WcTTQ5bGPvBu6EhxbcDWVpb72a8Ws+6bW9nmmVtH3MUamSBqF1SFCNmX4G1i9WnBY7avyf/nqSpwfVea/e3br3SFBW1XdzxPaQOAAGqbjzNbTy63RtAHhdehPf5sZjN2Grvdc/jGDVySri3Uud+08Cax9q/93vd5HN73qegzeubksLmqFrj1N0j3d22SD3PdIp3rPV/7Uhxc5M46Lia37EBd2ShCJVD0587KJq733j0vvuavrE9QaM9+27iSlPyqNokXCf30/aUd3cybai7Z1/t44tCjSwcYWLK3rFnm+kVSEx9zXGOgVqszWwa1dDVgQkBt49lGu3ocLNtQaYu7rzfNqLrG1kQmprciRknTO9+sN+/98tNtp+/H1MDO771GPda7+Ait7e91z2erHyaZk6nFmYQx6iRBWPy+p1VVPv9ezy+m2hCdt/jmGLBJ4M9+z1Hcw7K+KbTCFta72mixSL7B77aN5wo1MhC0ZQDNMwi1n23dUAetc20IoP9orBNhdS0iPRuLjX81+Rj1Yc64HH0d4rQD/obousbWSAmRTrpwt7z+inWczJtM63QfbKIYpowDxLi5HvaFntch6+gKnVFYTOWbvK/9dmOK7D25oOnHXcUauRwNC5d/fdcN0w9/tNdyTZ502bmTLtj/qR42xf3pDD3K3xo0wjuIFe3vc17zkCDFfWqTItcN2cVcqv7ewrTan6jUCOHwqvimqT9MSOr+3NvQAnCBVxVFUky22V7WLe53QnwKOcW8qgHPI9MeU2rm//EzaVNFGrkcNTTwIIrN//NN/nLdrqjPQd1j5t5n4jufq7v/caojUXeL8hz0LzR2ZCJv6ePoeMYNXJkzqym5HkKhK7wrYrXudGUEO55rBZG04h7mrj2C8ZMupLThLifMPcT5XGCXFPP+YCbAkShRg7JmeWEYrSFqGV7ewj0574PY8y+41/nXFjj5YCxaLON/fKp+xVSHDQW3S9yfBjrej8H5KDqqijUyKHIc0u3r2yub3DtrdsI509kP9OsY2NJJ8eobRG2Oz7sZ3WnPTfJ/YJJ014bCvf3l+M4InzwqU+9OUShRg5Fkgp5x7CxDrfXNvEapnLOG6+7gZ220LIsGy+R2L6g22umTjY82298uV8aZnK/97OYTYpGm7junMbucYwaOTKJhX6vx012KEvBezCWe5Ogx0A1jFG9BLE1bqzqbpOzNm3RNcsxNuJt/zTbnhR/8/jkNmflnteeQJAtCjVyKNIEzp87y/e/d4uiEJr2tsePrdzfKWzyqPs9d5CVbLvGk/2W2u/fb9v3S9eE14R1bay1OJ3FyZ2dKNTIobACVx8/g3rL5kZBVShZMnmBz8e83q+iqP345L+nBZuAPda4EWx7CcfJSqP99jF5nOPXiGAQZHwPmI+bEYUamYlmSqUBnng8I01zNjYrtnYc3V5CWFiwXXtzWLHuTtpU1XFxwPhZ3X8a2TT2E1YjYGPMuNqpEWlVVZRlOf73tJLBZtv7529NqNwy1G7GbpVSU7m095xnIwo1cmje92SKNUNur8ON2yUXLyTNBLWao1jU8dwS0N1gEsw3ZzkZJGo/lqYpSZLsES8wdZw7/cYROu4rBisJTgQVwRgJeeG6CHiyMmmW04tCjczEuEYVeP9jGedXKt69O+StGyM+/GKXukCOtmU8yj7Gf0+xWvMuMtjPrW4s7rQiiMkAVdtlbs7CiCERS4VQKYgGl9tgEdx43vlhKruiUCOH5syK5emnznPtT2/wxvV1ymqVNAl9cM2cQ55t63U/d3Yak+5qURTA7nKNjSCnBYymjVebYovmp1kbZyxaBMRgMOMFyI2xJDbBaoJqLVRfF+9zbxpp2rlEoUYOTWKF599/gT/8/Bu8dm2Nje3HOb/ajFOFvfZ3Vva6hPtZ1GmBnkZs992DKsPhcFw4kaYp1trxEhn3qwFuH0d7DJumaW1ZPV6h0gznLKIhpyrGYMRgsKAWBXw9jG2WzWjvv50XbohCjRyJF99/lizPeOvaJnfWRlxcTdgNNx3PRVVCT93J1Eq7PLDN/dziRlTOOUajEapKr9dDRNjY2OD8+fN7xD4ZRGrvo12a2H5tsLQGiwFNSSXBeIOp3d4sybCa1ks5Kr4+Be+ZurZrs5/GtY5CjRyJJx/vc/7cWd65scmNW9s8/2w/LP0wh3SEINwTcqktF+xfozvNArbd106nQ5ZlrK2tsbm5SZqme1zg/VzP/VzvqWkhCNZTwz7FBMudpRkJHbxSp4R8fWyyx41uT7WDXVc7CjVyJM6dyXjqyQv86Vdu8OZb65Q/cpEs9YQxV8viSSuee4jh6zSr5r0f1/lOirIR2qRbOlmBtLKygoiwvr5OVVWsrKyMRdK2zPsVVkymbdrH28wtVVWc83jnqLxHcsFYS/gvQQFrQ9DN+90V6dqC3XV/FdXY3CxyRDqZ8PwLS3zla5Zrbw8ZjDxZeq81NcI4n6jqWs8cYH3r4PG0iGs7GjtZibTf7zZZlvHYY49x8eLFsbVtLzzVft+k0KdZWhnX4Qfhaavbf8gHK2L2RsOtteP6aK8GY03dkjQI3Xs3/t2MX6NQI0fCWuHypRSxhrdulAyGnpUlO9Eyk7GrpwpJYsf9+PZzkAVBjIx76Y4fl10XsbF209IoB0WGG9ormMPeFizN78kbwP5j4JB/UQVE6369oYKracviqorCjxhV2xgp6XS7iNha5L529Jvxd4gSB5c4jPt9FGrkqFgDZ/qGNBE2Njxl4RHSe14XquokrMY9tjfTmDYy3UtTPdQIdLK6KOxvuqAmOwe2X9sW6n6lh+333BMJRsPixeNWK2FR5OAWCCJh/3fX1ijLbfr9PkvLKyRJQpIYsizDede6OSnG1HNuCcUfUaiRI2GMcG41pd/L2NgqKUp//zfVHDXcZK0dVw61A0HT8p+N2PYT8H6pl6nHu296pnnUjN1fEYOKCV5BnTAVCR7CjRs3uHX7bfK8w+rKKkmakOUJZ8+cIc9z0jQlTVNEhCyzteiDlY5CjRwJI7C6nLG03OPWrXXubo1Q7QZ3Dl8naua7YspwOOS73/0uAEtLSywtLdHv9+n1emRZRpIk49kxVVXtsbrtgNQ0N/mgce1+Ed/dsWnwE/a6ynXJoATratQwHA4ZbG+zszNgfX0DVBGjpGlCp9NheXmZpaUlvPdcunyJXrdHp9MJN6i5fpKR9xT9TsrFC8u8827BnbsVqtRCnePk1BZJkrC9vY33np2dHW7evAkEYXQ6HXq9HsvLy6yurtLpdPbkIqcJcb/IcJvJKO+9udYwva2J+jallNLU9fqwMGqSJKyurlKVOxRlyWA4JO90SFOD9w7vHRsb69xdv8v63XWuvfkmWZ7T7XZZXl6OQo0cDQV6PcvFCz0Su8naRoVXreeO7C4wOC/a49LJ8amqMhgM2NnZ4caNGyRJQpZl9Ho9er0e/X5/nENtJp43752Wahmfo06fZ7tHrIBQj0fDg60xbvM6Q6eT8+GPfBj176esKm7dWmMw2GE43GFra2O8DAYAXjEibG5sUJUl21tbUaiRoyFAnlnOLGeIwu3bJd4DdiKmO6fS37ZlnBadbcZ2jYi892xtbbGxsTHeRpZldDodut0unU6HPA/iTZM0tHjp5HUO1LUiyuG9Xnc73YOiIi3PoZnH5jH1raqd4kHAeU9iLCbJ6PX7LC2tYK2hLEdsbm0wGo0oRgWj0YjRcMjG+jqj4ZAsTRmMhlGokaNjjZAYT1WUbG2VY1cwzMmcfz+SZgyaJMk9aZnJsr4mkttu41JVFdvb2+zs7NSvM+OpbXmW0+v3ybIUaxN63S6dbqeuhhJEPc6HNEqTUBlbz6ZhuLpQ38tu5bIYg208ACwifpyucs5hjLCyvAKrBiN17Nt7Xn/1NZZ6fc6dO8ftO2tRqJGjY0TIE4sA5X5RXwlldBIGrxN9gGcfyxoTRLWxsUGvF4IsTeS3ie5OVvi0CyLas2SgXf9b4VzJYLDN+sYdRIJLnWUZaZqRZxlZHqxwt9ch7+RYBJX9XODao9DmhtH8mPHjzXuaggaPB684Qk2XqW8Ejz32GI9dvcKlK49FoUaOjhHIs5QkTSgrP1EiKHv+aizs3jzq7ONYVWU0GnHr1i2qqiLP87Gger0eKysr40J7YGpfJGA8PjX1DUTV1UX1oN7XBQdCVQ0pih22NpueULvj4jTL6Pf744hzr9fDJgmioc638BbbFPnX806NGPC0rG+40QXPuJ53JMGaijH0ez2W+kuo9yQx6hs5DiKhQklEKKt2tc9eOXofKneqqho/e/h9yVh4TeR3MBhQFEUosUsS8jxndXWVfr/PmTNn6Pf7e3okjWtpqwrEk9mE4WhInqcYY4N4rMHacIRVBV7GER4gRHGHOyOG21vclqZCCpIkZXl5iXPnLpD3clxVgUJZlZT1eadJgtTJK6+K190a4dB0PBQ6GBEuXQgljt55XCx4iBwHqd069Z7hYDgRPW0CLGG8luc5eXJv5dK97O8ON1Fb7z2dTodOpzN2ecuyxDnH2toaN27cGM+26XQ6LC0tsby8TKfTGVcDWROKCsDjfQW4cY8KCNYuDHObml1BJIg+SW3t2u7miZ0vWb9zm/W76zhZg6wkW3mOPOtRDIcMzTY2L0gSJbEWsRZVT+mKevkOGe/fIGAT1Duc9xgfSwgjxyBY1BBhHYxGuGlpjrq0rijLuqPBgVus2wpNb2TWFDG0ixeCGLvjMr1mnFqW1XhmytraGrdv3wao3VdDmiacO7tCp5Nw9cpliqKkGI3q1E4+jiIbANOasN6qNmq6WYgIxgpqE7wGd9arkmUJlVduvPM2a/57LHV26OSGLM9J0yyMgzOLSWyYXWNssKh1rxY1ddEEUaiRQ7E3FCQSrItYw3BU4vTeVzZ/75erPHA3kw/XASBr7Z5u+M4108LCDBRrE9I0w5hQIRQKCjzOVaiG9qBVWfL29et084QrF88jzuOrCucVh2DrgvrQAT/cQkzTqUFCEzOR0B/JWgtG8F6pvOLrUYCpA05iBK0co+GQYlgGq1mLMssTTGKwSUJWizdPM9I0IbFJqGoysYQwMhPa+r0brzUCnTzB2oSiCG1IJt/lNRSVq/pj51QboTb1vtAEjUKBhXqtJwEEAXsvhAa7ofwiSZI6kCQIju2NNTJrMSo457EKmTF0s4wkSUPulBBkUkDq+aGIoCaMNRVTB4DCTSHB4qjH1M6BKLZO0VgTnm8iwAr4oqAahbTPtoawuLUWm4S65iRNyTudKNTI/VAY9+y1UEcoPZAIdNIEKwnDUUnVUqqvp5IlqQUcRvRwM8cnj6KVcmlSLUmS1IUIYI1FTZOSaQJYOj4WoZlBUyIo1sD29oALj18hS1J8VZHUASVfOXwdnQ0urtQT4MPkU4HQKkZ83TbGgw/HIBKELRomhWPrPG+dfTUCht3zaFzbdocHweMrT+UqytGIne1YmRS5L9L6Hf7eKgpWsgyALLNkqaUoBjSB3+2dii999Qalwg/9yGWcEypfhQnSE1s9DN1ud2wVG6vqnA8urzUk9dQw5z1I3SnBu9q6Nd3+asPuPOrh/PlzZGmKq8rdWl9VXFnVE753CyhCCqUZSUuYwmaCKxze5xEJk8V9q4qpudFZEaw1tRtdW/Y6ReScH3/C0tQfqyISpjdEoUZmIEQ7q8rzf/2jr/BnL7/LX/vXf44Xnl4mTS1pbhgVIR3hvfL1b9/iv/3vv4BNR/xH//FfxpoMVzkqDWmKo5bsD4dDqqoai7WpxRUTXN+6/j1YNistq6qorWfN1KWAdaEf/V6fwXCAa7ViCdHcVsWTQuWrsYU21Ccgph5DGsJEcEEkqfexW93hnQfnKbXEl2V97nUBhlGsqVu1WEuaJuMbS3C9gzsfhRqZmVHh+eo3XuX3P/sWy8tP8+/81RfJMyFLHXfWtyidsr5V8Znfe5W33i351Kc+wOXzK6RpKMkzR1yfcXLGS1P2hxiM81R1ba7X3cIEAKO77nZob1JXLXmHaEWahdzr9tZmEIsYvBDGtbI7CyYUPFA/1irUl7qQQ0NhIVoXLFB3o2iLnd2AVJOI0fq9zjkq5/Z0QjTBdIf3E4UaOQTdbsJPfuJjfP5PU77yp2u89EO3eeLp86yuWt5dM9xahx/cKvjin1zjyhPn+Us//yxnVjK8K4OlOcaMmqYFSzM2NUk6zm8mJlijRqjQKqKvxWkl5C1VQaVCnZJ3ctLU4soCk6aUPswAEsAaAyLBPa2t7FisRsZlkcpuTySpp7VJPe6knvQdcqN1I1XVPevJNqX9iuK8a0/Cad2gYnomcgiMwC/89NN8+aURX/ry6/zRn7zDrz55gZVzPezrq3z3e8LXvzpgY6viU5++ykefX0ZUUAeuMnUPoKNXJkFdmO8VsSmqdVRXQWyCrV1R0CaGE4JaXlFfFzKqp6qGlOWIbrdDaoREPbkRKgmLERejEaq1EINiQlSZMI3P2/CY94pNLL3+UjgpHwYJrk7jhP5JQmIMqQhWwkoCuwa5tsQATQXU2Io2AaxAFGrkUJw/k/JXPn2Vb/35NT77pXd48sXn6fTPocbzpZc83/nOXR5/6hI/85NXOLeasjVUqsojanHV0ffblBDaJAEviKmFSlPJYzAm2V2mwoTqI1eWuMqj3gIG1OHVU3rP5fNngpAArUqcekySYETJ6pK+pnODesV5rWNIwWoXRUFHOnQyG24QlWLIKCXBWTse61oREmtrq7o3wxz0XaeV2s/Ulr3puRSFGpkZTxh//eSPneHTn36e3/g/v8+fvHSXs+cukvf6vPqmUHrHj/3w43z4hTN1vlJJEwtSYq27/04OQIzFmAyxFmNTjAqNHxkKCGqhWkuaJNjEUpoRTgusTRFjQ2S2HFA5pdPrUakG4RnDcn8Fr8oI6OUpTeWCeqWsyrBOmzGIDUusqxFya+gmoQi/QsEbnIRjCPHa1gwezHiGzW4UXUPSq+0OtyadN+PbKNTIzITpV4I18Jd+9gJ/+IWbvPzyba4+eQmTrOJcSZoWfPRDj7GyXLu5JojV2Kbp9MFMb2zd/F1bKZMgJg1er68L2W1SizVYVjHBgqa5pfIG9bZ2lR1qLJWHLO+yubVD4ZWLFy/z1Pvex507a7z95puoL8nq6qZmzVSR0IPX1mWMqU1IjSWRIEGP4OvxrDGCF8Zlk6bOx0rL8W0+VThg6cXG5Z/xO4pEYDy+Ep59YolP/wtX+D9++zZbmwOsSanKLXK7zg9/+P3j+TOhXA4Ss5vyOIg9nRHqd/hajK5SXOVJ8pRebwmVhFHh6hSJBVWsTUmTFGNDrjLrZeRLjmLkcZXjuWefYDRc5+1ry5w902Hz1jtkS8tcevIpbLfL7R9sUDnF2ASbZRgRKhWW+0uMhkUYV2rTDNxjbIaYJASZrGK8rSO2k9P8Avu2e9vno2nmukahRg7B7vS1PDN88sfP8tWv3+UvXlsj6/bYHqzx4gsZz17Jdq87VVxZImIxJr9/IKlOgVhrQQyIoapCVZRIipgMj8F5Ic1z+mkynt8pxpIkaahMcg6MwWPJez3yXsL7nn2Wv/Zv/Drve/wM3/nud/j9z/wW/98/vUant0Rv9RzDqkQlQUkovKKV0O10SPs9ls+cQTY2GQ4GYbqeeNQaSLo4ycMNRhSMDZYfG8aX0HJ9G6EK7Q7HssfSTngUhIhwFGrkEOzaBhF4+kqPX/jps1y/fhNfLGGrbX7oQ+fodUKBRD0JBBGh212h0+2NC/cnXb26nj68T3ff59QiJg+JjqRPkj/Gdunxwz5du0Ked3j66af5yIc/SN7pcOfOJt/73ve4fv1tirLAlUqSpVjb4dvfucn/8g/+GU8/cQatRrx5vUCTK2yXOW+vGXaGyuZohZGzVM6Raortn+P8+fMknQ5ueItRsUVZFYCnNCVGegxltT4LhxGoOINjBe8TrGlSLRrSM3V+tu3hC4QZM/t+7LEoP3IMuh3LJz52ga9/Y41vfeNdpLzDRz74xB63V1VIbMJwCL/129f44z927OysAbsdIaytHUKpLakKZVmQ5zlelapyGJvQW1ph9Ylf5YnV8yRJByUspWg6q6xtX6brcnaqAbZ3ieULdxGadicWazp4VX7wWsmrr5WIN2Tmx3n8/R/H+4rtokupjt75iu4ZX7vcnsoa1l2HrYGlzErSs56k7hLoXViUuMiyMJPHVlgDKssIFxC5hNFttC4rNKIkEnK93um4kmK8Po3WH0IbCZHmKNTIEfGA4/HLXX7m4+f5i29/g/Xh21y99PHxK4Qmj7mOxfDmNcurr5VUrhhX7UC9pEQ9wTwEbILl9m4n1MAawaSelbOOztkfpru8ineGqnKIeDaHhvUfVKiOMAasvUinfzmI3nnUCdZkYeK3OrwfIlQYo1gbmoqphzRRbHe30MGrHxdQhHYtof9uu/qpdFWdrlG8K8KUBc2w9LDqSdkGU2LFIV6xiZAmlkodrnLjwgZpD2T3fMoxmBQ5FuHiNAKf/KnLGPsRtref4/HHOsDuNWeN59mnlLzrSMyIPOsj0qd9VYZKXUNVViEohDAajUjqFIcHJM2RTp8vv/Q11C1jSNnZGbC03A8W2DnKokBMwmg0otvp1uuUglFLr7dMai3Ojbi7doOzZ/okBm68/Q7L/f640si7euVw58fryRgjYVK3CE49WZohSRJynXWPI1VFqhLxFTgFDdPfMBt02CRLBasJeSrkWQ4dGBUF3jetWmSqUEMiCEQPNaM3EmkTHFwFCu9JRLBT8gyD0mOtkDazUbg3yNk8pvVmjUDpgqWrPFQCr7yxzV/9N/9TRoVjZfkcL7zwAr/+6z/LRz9yiSxNuH234uVX7vJb/+izvP7691EVEwAACUBJREFU6xSjEVVRgYfEJGQ2oRht8fa17/PCc0+y3DF888++SqeTh/yqMWPBttNCqoyXRQwN1XKWV5ZZXVkZt4SxNgmirUq8q8LsGVUSGdFP18ntDtaUJAaWV1bpdroMdgYU5YC76+thvZp9I21xjBo5FjK2eKHYfDqd1OwZt8JU48Gk9+eKsDJ3WXlcahBdxw2+wUpvGetu8PYbb/H7v/cOb7z6HFcfW8VYhUp46okBo8Emm5ubjEYjXOXQShHvSMw2efoDrl7s4DZvcanzCt1Opx7LNvNe2Y3WEooqJAlxWa9KNSzRKmF15Rkur16u17pxYYK5+rqo36NatwitSpzzpHlKt9Pnh3/kR3juQx/Fq/Lutdf43Gf/iPX1jT21vu0PRTW6vpE5IDRTyvd/ngOe30Mr+psYxUuJkYqEhK6MWM4qOnYE4rCl5/WX/4zXXvkmaacbCurFUlZlmKOqHmMcJhNIhHJnB+/WyeyI4eY7LMmIp672yaylKIqw+7qwvvIe50LDNHWhwD+UMFocntFoxJ0bJSudgm63C7VIw/KSYWq9kICa8NN0lhBhZWWFp1/8AFm3Sypu3HViN0st47iSSpiTGoUaORby/7d3bq9xXVcY/+3rOTOSRhdLlmW7pCHQhtIWO+5LHFpo3gyNQyl+yT/b0Bc/FRqndeJQSrHrayNb45nRzDlnX/qw9hmpD30peZDhfCAkEEgjoaWz117r+33/4+P/W/1oBkF36lCW2wGTMpXSVNpgbYWvarR1RMApjasrVk2LcY6uC+QQy8aQcI0m+/t8fOtTLm05Hj/6iieP/sLmeCzfS2mss+XWWa66QpCNpBwT5MJlypG2CSythA3LkoWQIULsSRi5Py+L9a1Y2VZNy6pp+NOXf+TZi5dMtiY8f/aYtycngpEpv0QhiOazj4fxzKAfQj9IgZ7/eqpgU4BMROhEGkh4Z5H0NMgx0qUGtCHoBjTyFMzQtA1t16GMFxqhDixmJzz469d8cH2PqjZYJ0sYOUSUAW28LEnEiMoRRYmjMJSilD62qyLbZk9ogtWYLkAMkFK/SKhRWZe2QIo3oelih9aaFy9f8ubkhMr7s9tefdYL5xTL3VJZ/hgKddBFU14PJNIafQLyx5szrJoGrRJdm0l5QUwZW9WMNjbxORGykADbtsE5z+6lA5zz/Pv4BatFy4O/PeDbBzN+/aufoXTGm4pVajBOY1yFcxVtuyJ2DcYajCmIUQU5J2KKWKWwzmOdJyVIMZOyVJvGCj5FlZlPTme9udZSxlqvSYiSYSMOmjUVIpe5arG+aT30qIMumPrgp75VPf+WUqLrOk4Xc0b1JsZ6dKHP5xgInUZZK+FVRmxus5PXgKJtT6m9JXtHTY0tIxVbWWyQ1Bfva3Z291AaptPX8uTuYWYkcowQA7FrsYVUmMv8N2WFypC1bGVpXeiERPl84uyySCmMVsU/W362cyxjpRQxFSBbToTQDYU66GLpfGFy7r3qPZ1K471HaXlvnMOUdDehASbZcFKgSCzenrBYnOJrSz2qSKGhGhma5RzvbUlaU2gjO8POWVzlqDeu0XUt89ms3AhLj6raFqzBVRVaCSY1Z2i7Fu8rolK0bSNZNKji9BE/az5HfIi9ZTyJebyHofVbWjlrcoqkLAicoVAHvTPShT5Y12PAYftgYieFi1ZyYM5grDR93mrUyFONPd5ZZikw8hU6J5yTTSWlwVeO+XzFo+++Y2t7wvs/+YDNnQnVeMx0OqXrGpzRRG9xMa7XAGMO5Cz2toOjqzx9/py/P3lKDwp3zuG8E+BaWZ6wxgqt31oxrluLUqzjGSGRQqSLmdVyiTF2KNRBF199n9q2Evq7WrY4P8Z5SXTTBXSmjBi2lTEY66SItcaPa4wFRaRrltROtpIMhhTDukhGo5qT6ZTj42PyPzRbk00u7e0x2hiT5gljtBxJDfQDTm0s2lnQkYOjI755/IRXs4X0nlmO6+uLISW+VGsMVmvJoFEKQ0aRxJ6nIKeIMZbN8QaHh4fc/vj2UKiDLr7OwopltplyIuVA02aMtqiuIxeTdurvYxQotFAgSBincEaxXMypqiPBmzhLEwM9NbCqPJcP9lk2K968ec1iuWA2m2GMYVTXeFcDZ2FREAvR3vPy1TMefvMt//zXU2bLVQGx6fWyvaLHh2ZyG+SInpI4fNoGbzR7uzvs7+/z3o+u89HNm/zi57/k2rVr7O7uDoU66N1RypkQg6BQVI8ABZUUygg2rCfVk9X6EielSMzQKUkr3xxvkHMnDN1cUfkRzlV0XUBpOF3MefX6mP39A2yJbawrf+YrVaCVIQYZvVRVRYiB+/fvcxozZ0BQMEoL3mW1WielG60JMTGfL3DWcnTtOn/4/ed8dvcuP37vfWpviF1HjpnVqqFr26FQB118CbM3E/sUteJWWSesKSWAMFhb53JKZSaJnFJjJMdAbJp1Fk4uR9MUE1VV471FnSamb08gJbxz7G3vsGyW0j8qhbdOoiZzxloxiTtvOTjY589fPcCNJ1KohXY/qmt5HUFmozEEFqsVOSVu3brF3buf8+lvf8PR4QFGK5rlguU8ruM1QGHs0KMOekekStp3znlNp889M0H1K3fSN0pyW0/GV2VRKBO6DmcMta8xOWGNZWNnQ56khRKxsz3h6pUrhCTwsxwDhIjOiE1Na9bVD/TRGVtbm//1+nLOeGvZKmHK1hrapmG5XHH1yhXu3bvHF198wc72DrO3U46/Py52v0TlK5QtR2cgp2HhYdA7ohgixji2tnfxvma1almcLlHlFjWXrFRZkJecmxACKsvIpQnyFNve3UYbzcOvHxKbJaO6ZjzaoK5HOC+8pbrkl1onwctjX1FZi1UKtBAQY3lityECGVvGRAkJXG7bVv5hhEjXdqQSE/nhhz/l7u8+486dO+zu7jGdTlktTwltA0j4sveA1muCYRpQLIPeDcnRV2nL5ctHbG5t8fTpc97OTjHIFpCzjsPDQxYLuQDy3nP8/bFcEtUV3aIlhEBdVbRdy+J0gQodMQTm89Nza5BytJaCqfDOYZ1jNBpR1zWjUc327g7Oe7ITWoO1lkSUACgtgcShC1w+uMyNGzeYbE/oug5rLJ98cpuPbtxkazKR4OQyD9YKurahbdt1bIcubGCtDf8Bvhkx1SvpBOgAAAAASUVORK5CYII=;" vertex="1" parent="1">
                    <mxGeometry x="107.99781250000001" y="-46.99668701171876" width="234" height="272" as="geometry"/>
                </mxCell>
                <mxCell id="10" value="" style="shape=image;verticalLabelPosition=bottom;labelBackgroundColor=default;verticalAlign=top;aspect=fixed;imageAspect=0;image=data:image/png,iVBORw0KGgoAAAANSUhEUgAAAOEAAAEJCAYAAABi00AhAAAgAElEQVR4nOy9W4wkWXrf9/vOiUteqqpv0z09PfeZvXCHq10vzdWKXC5FiksIEEkTskiKgl4MGQQMWDb8YAF+sV4M+NHwg+AHA6YtGDBE06JoUiLNtURySXqvXO1yr7MzszOzc5/pnr5UVVZmRsQ5nx9ORGRk1iWr69Jd1XV+QM5UZkZGRmTHP75zvtsRVVUikch9w9zvA4hEzjpRhJHIfSaKMBK5z0QRRiL3mSjCSOQ+E0UYidxnoggjkftMFGEkcp+JIoxE7jNRhJHIfSaKMBK5z0QRRiL3mSjCY0frRySyM8nx7FYB6fxN/Xw/F6Ms3+TU0AjwQTqnk8pJvtHt/e9/JCJUVUS6omsuPAX8bLu72Ke0B74o5tOEdB6R4+OkXhv7uwHLUdYTNnKLY9xIZP8c2hJ67xlPCoyxtKpXpZx4ipHDAOq1Y9mWILP9ioRPBSN7PHc7YwzOK2iw3Pv6Fg3bGREMYJoPGUOBkvYtaV8Q29yOwkihlx/T6P+IKCtHVTmyLMGao7uVjscFIgY95SPz/U6outuX3jPspRiz+4kf+qp47Y1b/A//7PdIh1ep6IXfeFpx583rFOsjDIp6h/Ou86k9nBUaDr8R7XQ6Jc3Swx7m7iiUZUmv3wdV/H4uFFUSa8MNwjusV4wkeBFKgXRlyPDieQbnzuHwYCY8+cSQf/wbnzlx12BzuptbFV/6y7d5/vnX+Mynn+WjH3kYu8eFs1/W74z5X37zi9y8neJLQRND4R2IYI5A6CIC6jFGKMqCNE2P5XYtgBGD1+aGDV4VRefOw4tg1IAKYpTR1jv8V//4szzz2GDXf/tDi3BSJPzltyDtgzKiLLe4OFxhpbrKYNCj9BWFlkyqAucd1lpUfWPedsWIRQHX8xTW7N+SHgARYQR45/d9YXjvMMYgKEY9PZuTS0qmQumVN94rKK4r0wq2plusT+yxHf9hUMB75cvfvMk//+23eev124yr2zzz9GVWB4c/5pdfvMFffu0Wo/EjZDZF8aiEixf1y3ewT7x3qBjAH8+gScBKGKGhvvWB+PrLRARFqQRSelBZXKqsb20xGld7Xr2HFmGaZfSHV3nkscf55CdWGOZTHhr2ef8rb/HqCy9x4amHeexjTzM2jrJyJIlF6TpydsYYg1eoqgqb2K5/5+gxBlGlLEqSNNmX4EtXkiQpqGJQVtOU0Wt3eO0r38JkKR/8+Z/AreZ87fkNvvr1krR/4cRZQQjz9+/9cJP/8/9+g3feO4fNHuJb35nw5rsTfuTp4aH3P7o1xfohmRnQNwWJriN6B8FxWHeEqqKqWGuQxNSvEW7yR0yYGgmlL7DWtjbEeY9pRm4CSZoySM9TFH1G9gKTrVX6vd6e+z78nNApk/GY4UD5W59+hA8/mZMYeOHtF5h849/zo499hs/8R0+jfRtMeX30+70gu37WY0UXvbzLNp+f5yYCr/7br8NffBNrc37hs78El1a4XYz46jdKrM2O68gPxaQo+Vf/5h1efjWhv3INoynv3nidP//yLT701JBDjUgVKCETi83h0z/xMB977hrGjRGqoxFhPRxsRIDue2Z/VzRXbVWVWGvb69h7h6kFKhKGrFs3Cr72/73Ji7csfZvii72P5/CeAhHyvMdw2GPQtzTTt142YJjkDHo9bG4hgbtwz9wn7ubotm+bZRm5STBiSPMUb8FVgvd9nDuZIvzC1+7w+T+/idNreDJMkuHtkD/7wtv83E9f5JlrgwPuOdw+TZLgELZ0xEOPX+PHf/oKcmJDCssJN1/YOXQW7gLXX3yH7339++jNPjZJSe3ew/ojcNcp3ntee22L/+k3X2ElX+ditYV56Q3uFNe48eU7fOW9L3IrtZRI6/XcCWNMGHO3pm/v7Y8Kay3OVxgjVN7t61ZhrKHyHiMgznEly+Htd6l4iulWxT//X7/FzfwhvvXKBO8TXFUd6zncDc1lc/P2hN/+nZfY2FI++vGr3LxVsL4xAlFe+sH7/N4fvs1/+Y+ePaA1lPq7hFKFqTomOsHY2Xunke3XRvd5+GVVHFUxAj2PaMp0UrGX1A4swnaY6BVRz82bY66/d5ticocLec5l8yRJ7xnGdyo2vjHhdjHBS32QeNRvH7cba/FOw9japninuB22O2qsMXhRKuf26ZgRsjylrApQRTyspQNW7UV6XGBcFZRfLblT/BCTpAgTvL91onJnnFP++M/f5/svXufCxfP8/GcN//oP1ymKCc88fYW/+toaf/Znr/PzP32Z5z6whkg3CWP/4aZKFBWLL0H0QY8gC+BJJCXTDOPBGLf01zqwCJsdD/uez/7Ni5j0HGmWkyRPsWZTNr79Hm+++grplXNcfe5JpsZTet/xju61Z8HIvR20iAgq+5vUl1VFmmaAogq+cqxmPTbf3OTG8y+jufLczz3HphtTVhOc63H1copXxR6zVd8PArzx1og/+fMfMi0NP/PJh3nuWeX3qw2sLfnJT6fcvrnG8998gz/8o1d47OHnOLfWXCoe2L/X1FN7FLGYE3Dux48E7xBhzlqW5dLslUMPR689sso/+S8+jfeEyapAJvDy//wt/uLFz/P4s5/iM//wMzBIw/CttjT7/fc4SdajwasuOAIgNfDDz3+XLz3/ZZwqv/aLn8VeuBJE2njxTshF6L3yne/f4AcvX+fc2jl+6W8/wgBHOZlQTidcu1Twt3/+Ki89/w2++JWX+eQnrvJTf+MK1grgqKNm+/ouofZYej252WVHiqCi+DoUU3k6SRs7c2gRCpClCxeXwnD8Cue2XuacPEuWVZClZA9MQtvOYuqV1zk/eplCPalsYdN+Z/v7LcCZAtY3Hd/5znuMNrf4yc88y0efGfLmWwUWxbspKSU/85NrfOmLj/Olz7/Gv/uTN/ngs+e4drW3sL/9epL3vekDgdTGSOu7tMred59jU4X1E3p+TN842gnrAR6nidRNyYpNVmyJVMX9PpwFPMGKKe+8O+blV+7Q6wk//7NXSK0JmR5GMDiKSrm8kvB3f+lHeOTaNb761df5ylffpiiUcMnczbzwDKkPmPtdFBDB+/shQgnxw7JUXKlhKMLB7MFBhHsvH+1RekXqwG1ZlPU86CQRjth7xztv3+DVV15jZVDykQ8Ga105RZ1iDYiGC+Mzn3iIv/kzV3nv1g/4wle+y433t1BtRBjZH3p8jpmlGBOcFyrbTNqD909Yzw/F4L2QpClGTmaamjGGD37wEf7hP/gpVtcyrpwLWTHWCDaxqHd459rXfuUXH8X4n+Dppy5w7nzv2MNFDxLhp5KlDqnjEaGC4BEc3hUPoupamvtL+J0NzimoQc1Jq5iY1TY++kiPX/+VD2CNabP7pU60R2kvGkV57JEV/vPf+BQgB0rofoD/6XdB5zKBrDUsSww6titFVLEIiTUP/LSgPT1RrOWEFlTOH1Sa2G3vNrmYzUXjcBgEa2x47QCu6rnUtAf8OghIO1oIWZpm6ejh+EQoIc+uKiu8cyfzujwC5vMlKkQqKkewKieK/SlAOvE8QTDcXUhpx31KfWE+6Hfjmiandb8cjzbq6geMwaYJcoQFoicZMZAkgjGc0rmT4LzHed9kfnJY82Wk+29/2vzdh6A+1f0kqR+POkwYCxtrELPcHD8QqFKUBUVZhLmTnjRLuDdhtKkkNglVAsAZGT8ePTr/95L87eMcJYbk6+Oo7TqRiJAkycz9IafQ+qseurwosoDIUsfMKbxSIsfHrK1I5N4RRXjMnCa7Ikbw6kNx8/0+mDNEFGGkRQE1gtTxwHhx3Bvi7xxp8V6DJ/ssONJOEFGEEaApOQpF1NE5c285PhHGm+mpJUrw3nJsIoz/kJHI/jg+S+ibEv/9ZQ1ETgBSp1wtqX+LHC3HJkIxIeZkrY2xp1OC1P1R4k3z3nJ8w1EfuqZ574+lGWvk6GkSrc9EmuEJ4viGo0bQxtMW/1FPDSFYf0ZSDU8Ixxui0LYBW+SU4J0PvV8j94xjFWG4n0YJngZEBGNDU6LgTLvfR3R2OFYRqsbA72nBGCHPEhAoq/hvdi+JGTMRINR/5j2Lc46icGEFrcg9IYowAoBNoNcXvKuYlD4OR+8hUYQRAKwVer0K57aYjN1RLqIbWUIUYQQILRh6PQe+xFf+VHZAP61EEUaA4JgZDDP6gx6oiQq8h0QRRgAwBtJU6uW8YnX9objLHy6K8Mg43TmXRoQkCfm+RREdM4em7vi1Hz0eY9qaqRO3z0rmaNM6/jSiiIS1J1SV4gi9o3KwtbZPPUGDMtfRfDeOrfmvVlW4E5yhvNG2/XnnlE/H2XtEwJjQOdr7u+sgvRfOuVllxum8Qx2IZhFZRZfeiI5taTRjDYawnv29Xfj6/hF+cE5hx3Ffr73rmU4noXv6EWHa30JO9XD9bphVDs1W7IXd70HH2vw3mIEzVkVRn+qy1VlPDvXakRLmhZXzR5sto9qmL5plragfBBQSG9bz8IQu7O6+LBLaUHfg1hO3YObxIJ1uy8aetKXRdqOZvUBqDIKlcsu7Rt/d7sOdqSrKI9rpyaZJgg/DouVLyp22cdPJpnPX1+p0rUWBhIVsjAhVtdyZsO/dhokRgpAk6dHs9KQjUDmHd35f5ShRhEfMaR14CyFgL8ZQHeHARVXbmtKz1LvGdBZCWjYQjCKMoHXlpzFhJS3d3w08sgfW2uCUUl06x44iPPPMwhHBOWNwp2wkfaKoh0K+bu2iIvSyvR1SUYRnnmYxtybOaXD+CB0zZxGtU1Q0zLHHk73valGEkbAirzTd1iyqp3VmezJoBCj1ZNgsCdFFEUYQDEJIWzNiqao4JzwM0sbI62dLVBZFGAEEEUgsoMpkXOGiCu8ZUYQRGhGmiUGMYWs8xcW2h/eMKMIIEDyjWWpJk5TRaEJZno0sp5NAFGEECFOYxBqSNGEyKalcFOG9Ioow0pImhjxL8V5wR1dIEVlCFGGkJcsS0tTivBIN4b0jijAChIKmLE/JshTvfXTM3EOiCCMtWWbJcoMCVRThPSOKMNKSpoYsE5xzlGUU4b0iijAChGa/SQI2UabFhNvjs1GAexKIIowATYhCGA4zsl7OxmYQYbSHx08UYYRGallm6PcTiqri1u3pfT6ms0MUYYSmx0yWWPJUKIqSm7em9TuR4yaKMEIjNWug10tJEsv6+uQ+H9PZIYow0mKt0MsTxAibGxNivP7eEEUYoVmqwFrIc0NqLZNJ9I7eK45NhGIkLPUTOQWEOaERSBMLCJNpFOG94thUonWjm6pyZ6b9uXT6tZw2FOoGwBZrEsrCx/DEPeLY2+DbJD2FazMckHpNv9Mmw67YrLWIWMoyxgjvFceqjtAK/LRdkgdFQ7v/utntacXaBCOGqnJLm9beLWdlkby75bQsmHAKkM4KRKeL7j0jNHsyuKriKBtmn7Wl0e6G03nVnGBEhGI6xZ+qRXBmMjTWIAbKyh1xE2DB2Hi57UT8VY4QMWEVnjTLMKf0tm8ltMMvS3ek1fUicqbWomhQ/NIb8rGGKIwIZ2lhg8o7vGrtiDqdE8MkNaSJoXIVR7JWaLNG5Rmj+dcPi8bfj+a/CjiPNfYUrdN3eEwjPpFgUk4heS4kiaMsCqbTw49HBSGsl3pWhKjMzlURFGvqtT52+cTxWUIE1eWm+DSz7bKqLb56Rf3pXFWl37ekqaOqHJPp4f/t/CkN2xycsFS2qtYaUGTJqs3HJ0JrwsX4AC+XLSwIUcGqOdV3/jw39PspeZYxmhz+HJo1nx7MK2A3Oo4uAXe/5oSokhpDP8l4kP8J2jNTT89aMmMQXT4POKkkiWCTsMDldHoENxIBWy+Y+eAnbYTbjZiQqKLe4wmD0ubdnTieCZvz+GnBOZtxYavEPf8irPTB1DmlJwRFwDsQU683v//hl3cOsRZ1LngUrWWlLHji0kO8tL6Oq/ypdD0HI+7xTrHJ4c/AACKKFVm6OtHpJywNbuoVmRzgWb5S7/GI0BrKxLA+3uL7//aPqT7/eTa1YlqVJy5rwhobFnRsB5fLj09Vm987TLwFVmzCgASmFZsrq2BO5/rs1oR1KRDqSorDnYd6hyKs9vqs+ory9gjxU9rfufGc1zdBgZD4P7c8m4TtvA9Fj93XvQ/TnW3vHTNew1izexy1Yy6ZlFzK+vSMQdVjl/yExyJC9Z7J2hB95AqDbIg1lvOmuXjlxE6XRGRf4RRVree8rh6PehIFUWGCRaylksNevvcHkTBaETGIHv6iFmvDbzWe8vKffINz375Fb/P7JEwQMahqsBQieFz93SGyBaGiQ4xBVFHnkGadMZE69hhe82WJPW5PvFDfLMJKvM3w2liLKwqMzYGM6aSHu9Gjx3nSVFjWPfJYjlqs4bG/83e4+PGPkyf5XDqXyMlcBVbVh3DKPry56j2SJKirwvC6vrmoKl4MT6nSe+jiPTjqoydMZ8JvcBStR5PUUvoS0YTrb73N82++wGDzRVI/QkTxXkJ6nBhUPCoekQojoC4lDGgVVMNopWMhjZHWC+mdYo55quO9DwnuzEZCzrkgfvVUJSTZKi67zMbwA0yoKEu/9Ho/tltH9uSTpI8/0a5W+kCxxN3Xv2cHcvSIAURrC3V4FV59dI2kn1CW8IFPfoxPfezHsJMbiN/CWMGrAKFyA2vxoghTKEeoM4DFew0Wtbv4Zn1ozTGKmGP3wnvnMcYgKFLfALyrQASDwXvFZD2cWeHG5grPf2GKf+v9pWW1x2q/T5IT5kh5QE8LgnVJElPf5eu4J3pgb++ly6ukKz3efX+D/jNP8fTPPQrqmM1JZvOqqoDpltJbBWtdbUHC+7KLwJpo0P3y+bT3Yw1GOtwoDOa1CeNvfI+is1z2bod4dtJZIrvSlYMxUJYl460tyiPIN0gyA1bYqKZMcwuJsNNld/39gv/tX3yPL3/lJX75lz/OP/jlZ0kWso4W7fJJSAKQbX97wDC1sKklperSYzyNXvTIMdB6rcONHI/iqsNnzAiE5AVV3C4hoEnp+PNvvsdffH3Mjc3H+fwX13n31qQ+ruAI007mzUkQ384oMLPyk8kU591SP2QUYWQOa4TEGhBDdRSZd7UAvfMsarDxgX37xVv83ufeZX1ykd7qB3j1DcMf/8U665tVXSQtuw5HTzLOeYppwbJwQBRhpEVRjKH1MhatJbx7ATSXnVcNcVj125IhjIGbtwr+5e/+kB++aunl10jSc3g35N/9yRt85evXuX5jI6Q/qu4zinu/CXbaOcUYg5H7VUUROWXMhnqZEXIbvJKj0cFrmRrBiIS+NTZJtnUe2ByX/Ks/eouvfmNEnl0JK0H5kl6WMshzNjYm3Li5MXcPONlCnB8oG2PJ8t7SEUUUYWSOLIF+alE13Hj/KLpwC2VV4p0LHkRmj7/85k3+j9/5LlM35APPnkOrDS5e8Dx+bUg5vc0XvvB5Pvf//hFV5U5sfHk7QYTGWoxNMbL95rNIFGGE7t07SYQstYgk3Lh58PUoZontkCQJNrFtNzqAF1/Z5Ld/5xXeeWfET/6Np/jEx4TU3uGhh7b48HOriL3N1772Z/yz//G/53d/919SVWXIEtOT6pRpCEfnnKIqqEobPtntHhJFGJkjSYQsT7BJwvr66NBDv9B7tqpjeeFqvLVZ8gd//A7//q/e5YMfuMqv/MdruHLEZPQ2zzxV8sm/npMNtvjghx7n5Zdf5p/+0/+W3/7t32Jra4vTEno2ppOwvuRHjCKMdAiOmSQVjLGMx+WhRCiEhI08z/HqMdYwKTxf/No7fP4LP6A3yPjVv/c0T10Svv3tG4hucfWS4/FrwuboDd67/g6XLz9CYlLGoxGj8Qa+du6c/JFpGHSr6tKudTFYH5nDCKTWYsRQFNWBL3bZ9ixYhjfe3uIPPvcSN6+/z099+kf5hZ+5wjvXC176wXtcON/n0Yd6nM8hsxmf/Vt/nw89/hHeeePbPP30h8h7A3zdMuJU1GtK6EFrl5jvaAkjcwiQpinGWirnjsQZohIKXZ1X3nzrNi++8DofeGqNX/2lxzk/zHj+hxtMCseTT17iysU+iYCfpBTjyzz55Kc4d+Eaz7/0MoLFij0VApS6HswmCa7Jb91l22gJI3OESnBFxFBVPgTUbfPuYr7n/lBVtM5DfeLxc/z6r/4HfOCpC3zkA+cA+NZ3brA13uShS5e5cD7DGpiO4Qtf/B4/9omr/Oqv/xJJFoa1J19+gWYuXJYV6vc+6ijCyBwCZGlClmYIJjQAtss+tQd1hrWv50dPXlvh137xw6SJJc8so9LxwvffJU8NTz62xuowwVq4dvUCX/nq66ysPcWPfuyjJFZDJs9pQmE8niwtZI8ijGxHoKwqpgUhfzRrLv67b9mkqrjKhcwRAYyQD/J2HvTCKxPeeXedK5cv8tTj50mTsP//5r/+ZV565TrP/chVBoOkOazThWgI9yw58ijCyLaucd45XFXR768eus+MmLBGh3O+XSLPMHNGfOkvb7E1Vn7kQz0ee3RWiXnhQs7HVh4mT0/vJap19f2ym8fpPcPIkdJUvAmQZxlpluEqf4R1ejPnRPMoPXz7u7dwznDt4ZwrF+cvxyxNOeg89CTQlEPKkvvYKRtkR+4FAlgxuDrVbPu7h9t3s4eNkeOVH97AGMvjj50jz+ZX8Jh908nOGD0sUYSROZoOmYrWqVfb3z0qbtwu2RpXrK4OeObpc202jG6T4smtIDwKoggjNY38qMuOwMph3KLLef3tTarSc24149rDw4Uj2X5sDypRhJE5vELlHM45Krc85eowvP76BptbI7IUzg/Sjr17sEW3SBRhpEMII6SpRYTQmuEYRfjue7dAlfPnh+S94/uek04UYWQbTTs/0G0tKQ5DV9CVh/X1KYhy6eIaWXq2rF+XKMLIHAYY9PK6NYM54uHobGfTQtlYL1CF8+cHZ/pCPMvnHtmFXj9D1eGVNsAeOJwiu82a1jc9t29vYUQ5fy49Y7PAeaIII9vIc9u2GXR+58jdfmnCDovd0sZTz7SExAqrK6dx1Y6jI4ow0tKExK0VrAXnKsqy2+Xs7i2hVyjLgkUBOx/ayntf0u+d7cStKMLINpIktCMcTyZsTquOfO7eEgqQ53mIPXasapaZkFcqi5mrZ48owsg2jJG2C/dkGtoeHsWcrbs2SVk5Ku/J84QsPduX4dkeB0R2JElCAa3zhvHkKNpwb0frJc6qqmwXnjmrnO1bUGRHev2ENEvwzrE1LjvvHK0P0/ujjUOeVqIII9vo5QneVUyLgvG4sYRHXMkwW39mbq54FonD0UiHUDnf61msEdQL0+MajgK9PCfLS9LsbNuCKMJISzPY7GeGLDV4L4y3Dr4ozF6oQlmVGBOWuoaDNM94MDjbt6DIjmRWSGwoY3LHNGfTzl+Li4GeNaIII9tIEyFLU7xX3LGpUFEvOOcwSRRhJDKHtUKaJkjdoOnomImtmHomEwdUDAZRhJHIHMaANQZBqY5kud5AN310a0upKsFYZXU1XIZnVYpRhJFtGAMiiveK12Wta5fQUVZX0KNNh/qELEs513+AL0MNv+NePMBnH7l76uYSAlYEUaEqD2mhNCyZjRGybOaM39gocE7Ispw8P95eNvcLYwwihmW/YBRhZBsikOYJzgubI9cp7D2ATRRAg4PH+dn8cmOzQFXIsozkAXXMiNQNgJf8blGEkW0YA2trfZyvuH1rk6Jduv4AYlF27FMznZYIBmPsETYYPlk0NZnLltCIIoxswwCXrwwRqVhfHzGZHtxDulsdonceaRoMP6gi9IrIMjsYRRjZhYcuZ2BKNscTtiaHC1PsfBEq1lqE2VoNZzWDNIowsiOXLqT0ewlOhdH4sPLYydQJznvKqmyHow+oQVxKFGFkR85dsPQGlmlRsjU++iRuawzqHYlN8Ge8nCkmcEd2ZGVgGW1tkhrL5uhoRaiATSxh1YnjqdI4TURLGNmR1b4hzxPKqsed29XyD+yTZmCb5xaMo6qmnN3ZYCCKMMJOIsgzS5ZbKifcvlPu8JnDfVuvH9YeVHWd4eiDvQTabkQRRtjJJZImMBikFGXF+ubkyKWRZSE+mCTJtp6kZ40owsiO9FO4dvUhnHNsbG7hjnDqJoQWGmmaALI0t/JBJ4owsiOJwGPXLuPVs7E54aiKKRqbVzlPWRao11rgZ3MoClGEkT24cqGPKws2R2Om0yMsaQKy1JBlKV593Y+0eZw9IUYRRnbliUf7DAZ9ylJYHx2tc8Y5z3QyQTWksM04e/PDKMLIrjz12ArWCDdvTbh1qzjSfRsrOF/hnHYcMw/22vS7EYP1kV1ZHeaIwGizZDQ6eKxwJ1mpBvEF58zZJlrCyK70+7CyOsR5pSgOJsLW3aLgOt4dY8DaUPCqx7km9ykgijCyKyt94fzakPFkzOZofCiXibUWYx7MCvrDEkUY2RUrsLrWZzqdcvPW5qFjhTaJl9tOxF8lsgfC6mqO856N0eTAIgxd2ypcdXQ5qA8SUYSR3REYriSoCNOybth0t6hSOYdzFbprnf3ZJoowsifDoUUSi8Pi9eACsjbBmiQKcAeiCCO7IsBgYEmspVShOkCOp7FCmqSI2e4FFRGKooy5o/f7ACInm37PImLw3hyoAl49+OaDwlw/GWMMNlZRRBFG9ibPgnK8cvDh6ILIWiFKqLA/4xqMGTORvUkzwTsXeoeqHiipzBqDtWZu2CkGVD1VpQdz+DxAREsY2ZMkUZyrKMvqwA2ZRARB5oad3nm8r+qVQR8UU9gtx1LESOjCveQeE0UY2ZPECOqhmHKgOGFIWVPMgtCS1KDUVvCB6rY2U5y1Uqfm7a3COByN7Impa/2qCpw74LCxHsZ2ZWgtOFchlVIedL8nknCWWp+zsQZr9rZ10RJG9kS9Q70HPZh3FDre0Q5parFWqMqKSflAmUKgHoJLEOOyiXQUYWRPRCxJkqJqDudAWfCs2lQwCZSVMp7O5n0Dt9gAACAASURBVFGnC93lUbPPuW4cjkZ2RyBPBe8d3ivqD7tW4WzBUWNgOOhTlSXjrQfJEt79LxQtYWRPXO1UUc+B6/4UQqyxMyxNrGAtlJVn3K76dBCJ3y/rudP37tysKnpHI4dDFJHgwDxM7igi2CQMvBTIsrAaU1FUjDYPWiN1v4exuw9Fpe5ZpftoIheHo5E9SUTCXPCQ17l6RTvB+pW+IbGC97CxuaSJVPMx2enF+8PO1k3aaaAqqIb46GwEoXPbNkQRRvZGmrS1g2XL7MYgN/R6OYkt2NhY3smtOxRu/hYjqPdLh3tHRZNs0G1M1U1AUPzMNqsQBpq2/rvZhjA37hx0FGFkT0TAiME5beOEyuF7omWZMOjnGDNhNLfq0/zew5rv1E6dWQxOVREVvK8QCb1qFhPBm2ZSi/8/CHNiqwW0/cZQH7sxzb0rDOXrgYT3Crr9phFFGNkTqa+kJLV14P5oSFKh10vwXllfH+PpOijCxbxT6VMjJO89qh5Vbb23u5+DtJ+FgzuYllL/VgaL8/XfxlJV2pkfbr+FRRFG9kaVsiwpSn9kidYCpAbOn+ujXtncKKgcZJ0+UI21a81GbYnKssQY0wrL1wbI7DBHXBRfY80aL23zfFGUXYsZPh9eN2Znq9rdv+94rxKbsLKyQll6nAsdBoSQDN+1rFGEkT2xRjDWBCt4hInWBrhwfojzsLk5oSyDCGfWapb6FZ4r6+vr/Omf/illWWKtnbOCXXHAzGrOnhvSNCVJElSVoihQ9RhjSJKEoijazxljKMsKay2o4jqhFWNmuaBdkZs6NU0VsH1urA/ZGudkWZ9vf/N7vPbidbwbYYzWxzX7LaIIIzvSOiRbixPu8Ee1WoQAD10aUFUlG6MpZeGhZzqOjXnnBSJsbm7yW7/1W0wmE4wxVFUVGkg5t22o2Rx3mqbkeY9Llx7iQx/+MB949lnSNEEEqsphTFgTY/Y1Icv1hRdeZn1jg63RiPWNdaqipCiDcBsBi9CKz1qL9w5FUHMOTZ/FZT+BYvi93/8ifvIdVG9ixNXHOTu1KMLInihgjT2yiEDXll6+3CNNLaPxlHHhOd+dFTZiorZqQJoknD9/nvF43JkXhu2MMa0gup8P1i9jZXUVYy2PP/E4P/LhDzEYDHY9xo3NMZMy4c6dDUajTUbrd5hOthhPtiiLCUU5RVC8+rnvom5l5fQclbnIyA9AVujZFfLhQ1iTIlTbnENRhJE9mVYVZVkeS1ju/LmcwUof55WtiZ+PotUi8wBeUcKcanV1FWMMqjpnAYGF4WewaCIGMYbJdMorr7zKaDTilVdf5cf/wx/n8cce3eZs2twq+NZ3f8Bb79zEexhvlVROcE7wLiQtWJug6rDMD3kVj4hB1YIaIEHVYmyGJUHEYGR7fkwUYWRPUpvUCdxHp8LGP9jvp4ixYCxFXUmhIbw9933OhyFcVVX0er12GNq8tjh0nQtLIDjvsSrYxLKxMeKrX/06L7/6Bk8/82EefexJ1s6tIsZw584m7777Hm+99RZOhfF4RFFM8FWB8xUiwVEkMpu3Ls49w+1C6thgcOpIOCgaj2+0hJG74jiK3rWWoTWCc8pkOqWq5pO4jTE453De470PltE5kiQhy7LWEs6Os+vN1HYIq6qo85RSUXlPUVaIMVTvKptbju+/9EOMTcnyHBHBVa5uVFwynmzhqilaFa0Qwbei6z6gO4TW5kTbs92LKMLIfUSoXAn0do3zaWfe1/VSLmavhLq92ioxP09rHEtGPYjFGosCk8mE0kGSZGHITcgM8t7hq4Ki2EK9A1egWuF9Wccm/Tbr2xxLm0WqwSaqhoZWexFFGLlviEiYXxGySnbCex+EWAvMLfTY0LqHS5MO1tl5mzztva8zViSECHwQh3cgxRQRi7G2/VxwAytlOQV1iK9Aq+D9VAftcFkWxDifctB4k2fPwwuL4o0ijNxzQlozdZzP7zlgUw19aBqLV1YVXkPiwI71C52axXCt19bTB9F4rUXtPVpVGGsxkuCtDbM5CfFQFXCuABzGO8S7kBuqWlvC+fS1ME+s35N6wF23BpF22/CIc8LIiUCBPLNhxd7SzVVYLG7XnZiGGJ1SNWtb1NZlFqiftTdrB4eqwVEigK9fdQb1FdbbYAnVtjmoSKij9OpmoYh6GNqky7XH18z7lDp2aGeZPkJbRaGNgY2WMHK3SP2fZn5zFGjtAy2dC8tl9wzG7l7a2r1oy9Yr6lpr2G6jneTu+jXtpqjVj/C34l0tLikxPswV641x9Xl7daAe8WFfymJssPt3mHv6Rrid7lZhyjrL7OkSRRjZk3bO08yVjgCpr8ymF2mY5+2+7+5F61yFilC5CmqHS6iyYGaBtLFe8+cBtJ7WJj2tqfnDu2BZ21xRqcMNvt1nO+ydE2DYNvztG1MX9imCEPJc9/rpoggjy1FFmLn9j4e9XYgzb2PtWAGkk2faCqX2XLaipDtU7exrIa4YtqmtpjH4RoShr8cs9NHuo3tszT7m08jbUcSSIUQUYWRfNEnSR4ncRWlUY6WqqsJ7xddOlSabJpipeQEuK13ynRhkU5lRv9F+X5NZ0O5j266aavpm/imtpd8vUYSRPWnc/421uCeItHO5cAzaiiuI0OO9tnOsJhbRWMnmM9vPZRfnT73/Rojt8Lt18HTOu9FiM0Lvvtg867S+b6207H4DiyKMLGVbbd8xI8yvCqyqGAn5olVZ1TcFOkPPeri4IMAmcF8/CUW2u9QQIrMge5O3GuZ0HVpxzp6C7ww7PYrpxAfrBsC1pZyFKeaJIozsk+XpV3eL1B5X2SGpud2mU4ir3uOdC4KrteBh5gmVeQE28cXFGGI9wkS6nkqti31b/1OYE4oxSONhZSbS1krWMcGZMBWVbjJ6I/r2IICQltcMhaMII/cN1SYgni20yp/Zn+4QuLlwjQnWRgnCa8XWCBCd/2z7+mzvc2lujbCk46QRBV87f2qHTPue9+0QtQm3SP231ia1Pew5J5HH18no3aFvFGHkvpFaQ2LDJdhctLJDKGSnZGlg5pBh3gI2F/22vjKyXdxzWS9NXxvpOI06AlZVDGF6NzcuEL9wxMzuI81QtEksYP7GArH5b+S+UDtSwgwK9UpZdCoi6vhh99Hg/Xy2SiMOmBfgItLM77rzxYW5Y/OpnQTPbu+pNn6hNkyyndk8sns+zT6iJYzcJ4RU6qXXVNna2rv36JznkoWQgbCjV3Qvb+j2o9k5Urm4P1s7iOb62dCZj+6a07D9+JpOAFGEkftAuNxTK3XjpYrRaDq3RdNDZrcge7dmcKch6d2EU3bsuua3ayl4bX1Ym6MdWjYWuLWjIYG7fb7zcXSPNQ5HI/eNNDWkiYCH0eYEWJY3szeHbfDb0AxPZeHRDlt3nNs1wuxY6PqP7s1jsfgY4pwwch8ITSdg0INLF1eYFgW374wOJcB7wWL6227vN+ERbUMd27eDOozifRRh5N7T+BvTVLh86Rzeee6shyr3Hbffxau403ZdIRz00Y0DHvwEd3DqMP89zTnFOWHknjILlgtW4PKlNYzAdOqoKkjqaqJutQPM5oOL3bOl3WebptJm1xyGnQR/6KFu40Ra2E8UYeSeMytlgrW1BMQzmjiKUunl86Lr0k2ybsUp8/tc/I6DsJuAmzDHUeTQznlJD723SOQQDIcGmxjGBWxNto9HF61hkiQzEXSKdLfFFRe9Kns8xMxvv9uQdi/abTppcNtPZrZtlyjCyD1l0YY8+mhOlqZsjErWR6FqfrfLvTuMC2LbxZu6IMjuAjKLjyZWtyhgMbLt0Qh0+3HNP1kMWcySZxaseAzWR+4X3cv4uWf6CI7NDcfGerV7rLumG7Tvzgu3f4lse958Ztv2c3mny+k6gKRjOWemlLoCY6E1ojBLjWMmxijCyH3l/IpltWeZThM2R530sR2q4SGIME3TueqIndPNFoaQ9VBxsZSp8YQu9i/tsj1oPx/ra1ruz32gzVTTYEk7+emLmT9RhJF9cThf4/Z9NZdsnhsGvZSNLcPmZtnmg+429MvznCzLQs1fXQpVR9JDk6XKtQH18PCtlZLONxuR+WoL3f07YX4e180xb9bFmPlpF8fITY2FmXMWdQUcRRjZE1MP36zYo/EKLjxPLaytDbhxs2BjY4pf6J/bfKr57u78zjbWsH7PAiRpW13hvcerx1VVHTzXuh1GoClAmrsrwJyemoPunrswv/3MsoVqCplrub13cB/icDSyBOcc3lWEnpuHt4eLMrYGrj58kZdefpuNjQnOKXZWjDcf1E6S9m+oixY6jk0aZ01dJOw1WClbd9fW8GLbW8arD20PFwqWW+/qLge9MPjs5LFqGzPpWtdlRBFG9kakXZ/wCAzh9t0DFy4MMGJCwN5BmtGuPRg6oM1XLYTDCnO5Npez89ws7N8YM3P4GLDM1uV2lasXnnF1IkDYjzFme0hhlg8wr9Hm2NS0zpdtQt6DKMLIjrQXbePGrydry7yXB2FlVfC+YloqZeXpYxfqBnXbBb1rmRK6bV0LbUQ159Wsh7SZAdIwn3S1hfQ7rHtY/1+UuSqK5v2uc8ZIPf/rOmj2uINFEUZ2RYCeMUidLtZcjEfNI48MSHsZ44mnKDyCpZ0H1l3Kgu9lJp5ds1p2MD+z2GKTcTPvPRUxWBMW8AxDynQuTa7ryWz6kBpM+153/+FILVXtiGnSSI1IO1SNaWuRuyQ0/lV3NHPCnVhbSyl8wcZWxXjiZ/6QTuxOCXO7bpxw8Wi6IYudh43N+zNhLwbOBdmlH2p9LD4E4p1z7dxyPhYYvKEJlhKDU4O1BtHm5jG7iUTvaGRfZFbIEot32orwqKeGeWqpnOP2nQmTcQXkdKUkhKfOuSDCemi5aA0b58hihkoXVU9RFBhjsMaSWNk2VBSzMP9kto2RmZOoEVIrSA2d4EQTvJq6URQkSUKiFtTi/awyvxlyRxFG9sRag7UW7zzq9cgFCJCloX385mjCtKjm3pvLE+28FgLgtXXq5JDWW8y2pZnThTUmJuMJo9GINE3JsozSGnq93txa8ot9bRq6ZU7dbZrUN1WHIohPqZwNoYpatNYkoGEFqLaOMLa3iOyHxAqJNbjaaXEc5Jkhz1LKoqSom/t2Gza1ntDawSLUzg8jiDFtD9KudenSOpZohqJKnuckScKtW7dQrwwGg3YYuls8tBXgYsVGPbw0xuA1fJ/xph2aIkJiLUgCOlvq2zkXM2Yiy7E2eEeddzg9ShHOovJ5buj3+hTFmGnh2vh5k40iCFoLrLFGhmAB28B7k1RgzFzGTOs0MQZ8GIq+//5N3r95kzQJ6W/nz5/DWNNktu1JN/d0Poe0+R4wauaEbEQw1mBNOrf/RohRhJE9EQkXsHrhQBqsM1eKsgjLmTUvdshSw3AwYPP2FmWpc6lrznt8GOThvGsD7zOPZLsWbxAtQN3CvtmuccCYNOXCxYskScrW1gj1ysrKCoPhStjPgrdzx9NpbgoLMcv2cyIYDMZIGy+0xm4b4hpj2jzYKMLInogFxAUx7JDhtQxVpXJBPFmW7bhNZg3DYcqd9x1l4duhZehmPcu77PYjnR1gbU8b0VHfNBbMWvOZNE25dOkiFy9exHtPmqZB9N7PzyR3CoHIbAUmUw9dmyyc5sNN5g5iamdNfRzNPBYzZ6WjdzSylDSFJFXK0lG5uzeFIkKaZRib7HhdAxgDaaZUrqCsXD0sbNz4BCtsFuaINEJlexyiY5Vk4XWYBc+tTcO+NeTZNI6SsM1u4RitA/Cd901HtGJApW7PT3Bo1efhnUfEz9UwQnTMRJaQJEKSJownnqrSfc2bdmN7yGBmV62A9xWuCtX1ImaWuaK0wmzEaa0FkXZBmFnpEAue0u4BdGsKBVHDbvk/uw9JhdkyNPPnEfIAao8otBUcwRvquHPnJq7aIu/1yLKsrQiJIozsiZUQplDlUMF6bRbzhLlYHtQ5JiaoaG5JtJA2WqteSdOMyWRCv99v44WGWVqbp/78bia3SxP607u9owTBdeeOjWdUNdQOGoIHV7SZjwYnzFtvvsmtW+/S6/eD+JKElZWVKMLIEurAtBF3bBkz4XuYTcVqA9nMr1RD57WimPLCCy+QJAn9fp/+YMBgZcjKygr9fp8sScLctX40Cd2IkKcpShBD+DrZFhvcD955FN8u1R0+a8JrInVmTP0N7VwwhCy8V0ajLcqyAoHRaBRFGNkPoU7O+R1WHjpiXOVD6/uupVRaZ4a1CdPplLIsGY/H6Pvvh3S2JKE/GDIcDlhZXWU4HNLr9VpPKqq4zhqDTbK1dOaJ27K+6423V9prd3pJt8VFU33hMZ2eNLNPDocD+v0eZVW1GUCrq6tRhJG9qQ0UOyeBHd2XiAS3fRDObBjXFCcItB5Ja+cLjL16trZGjDY3eO+990iSJGTEpBl5npHlOWvnztHr9YJVN5Y0SUJOJ8Ezis6GmYG6FX4nj1RVgxMGaBPL24yeTjikk6gNwVs77A/56Ef/Gn/tox9ma7zF+sYGb7/9NhAdM5EldMMC3aHiQdnRmtaxxMq7NuaHhus8OPXr7+xYH5g5aoxYBEUay4dQFSVlUbC5GdpevPvue+R5Rt7r0ctz+nn4f5qlpElKliTkvR6NELuxSui0wqjnnypm7pjCooV+Li7Z+QVx3pPacAMZDIcMhkOuXr0aQxSR5cy5+JEjH5I2F7q1Bi+Cq583FrgxPE1PmMbbONcIGGZlQ81eZXYDMQCqTCdTptMpGzoblmZpSmIteZYxXFkhy7Lguez1guVM0zb/1Nd3BtWw8lLzuzRzV0/jeTV1grihcuF7ktp6t1a346mNIozsSRgSGry6+bjb4fbKoklVhcpVVN4tvFU7OkRr50xBWZYMh8N2WNqWEunMA9t8hzRWrD4PkaYFRnjHVSWuLCmmE8bjLbwPc7wkTen1emR5Ti/v0e/3GAwGZFmGtUm9vr20694rWltJg8Fg/WzIbK2p09YMSqjPbKy59z6KMLIfFPX1SkPHsHcBksSSpCnG2LnvaOaFQsgdff/997l+/XrrfOn3+wwGA1ZXV9uMnEaYbUFuLWpVHwa3rZUMr1kJ+bEhSuIpy4qqKphMxsGSmlCsa0z4O8uCIIfDIasrK/SHA6w1JMbivaBYrLcYaxAntSe24zWdO79oCSNLUFXKssR1wwbHgPMO56vW4TF/DIAoaZrinKMsS4qi4Pbt221tYDOMHA6HrK2tsbq6ymAwIEmSmZdU6p2pIqKEwEK3WDhYLcSCGGxiW6+n92GeGAQ6Yry1yfvvm1qkQpJYVlZXWDt/id6wh6ShZb9zEpK6rdQ3mAqpY67OaayiiCzHiIQhmKl2Sy45Ipq133f5knooWlUV1lrOnTvH2tpaW4nQiHNjY4P19fV2Vac8zxkMBq3l6vV6ZKklT1OovaOJNaHHjPekSUqe53j1oUTKa52BE+5CSWLDlI4mF7Q+eu/ZuHOHO+sbeLOJ5IIZXCNJLrK5uQHT25xbLbE2HJe1FmttFGHkfrHdnrYdyna0tdq2h5gV0CpVFaoympBEv98HaIP1VVVRliV37tzh5s2b7efTxNLLM3p5Ti9LePrJJ/HOszUek/dy8sEgWE8j7TJrIk0P1vlj3O6pTSiBqirJamG/c/0dTPkyaytT8kxaq51mGVmSRBFGdkd3+OvoWBBb7eLfddt6Htd4FMuynGsT0V3PsBFbnufkeR7OoNOGoioLJpMpt27d5MLKEB57DKOKL6YUeIw1ONupZSTEMBMbhrbW2JAFU4cpRAyIr3vPQOU9iMMaQ5JYSmsRbyimU8pp0Z5VLGWKLOXYgvMLhHSyuhlvmzC68wE187+duq11Gy51BdkQhGRJ0wRBKYst1tZW6KcJVVnQyyw2S8izILRZW4w6LOErnPc4SqxNQs1gXeHf9J4JfWU8Fkhqb7J6h6gP2zRFyXXto6/KKMLI7jSx+WOeDLbZMN2q9R23qwXVrEXRFVh43gxVZ9sGP0xtYVVxYQULbO2kGfTyutrBkyYWMYKvSkxKbelmIY92oRkP6ku8WoTQ3Mk3IpRkrpWGIWT0ZNbS7+X1j6ptorn3cU4Y2QPZ4a/j/bIdVjiqUdW6Hm9WzjQvxJkIF3OxtW6joXhUQ/xQ6+9aXRmChCLdNElwAt45Sufqm0Oo1pDacWSsZbbAi68tWmgKLKqoqYPxtUVvet5474Io62NL6qJfMTFtLXISkJkl3M3mGlMHvK0lTdO2PQRI8Gyqn6XVzf5XZ93MhOo11BEaUYy1rK6t4coSnK+9nXWAvfu5ujBXVFHnQhVyaDmAb0RqDSiYppQq5L0jNgjSe8dkawvRaTt0tdZiYpwwsozmYvZtkvNhdrbL5zW4+EWDzWqS0WbXc6cNvZHWG6oaBKjeYdqFWJrypLqMqLZgwXEDRuuSLA2WqdfvMblzB1vnz4VuGvVRKIh0V4QKN4lQcFHnvqkLmTp1HNEYCVZQFW2rT7S1jqa2mqC40uOIljCyD0Tqi/2Qc8Pd6mcVBTdG/AiDA8J6EqFOz3UaPYWMF2Pr1hSEol5bC6sZyi5q3auGrhPehSC8eKrSkVhLkliqogAjaAWVKB5ICEuvzXlcEcTaus+pzjJpoE4AqP+vvha/x4hiUaSuQRQJHc3R2Q0jijCyhNoDOFfmc6Dd7FI4q2QpPPOY473XJ1w+L23LlrafKCFobkzSDkPFWMDUF3IWVq9oPaO2nRc61WBlfZPKVuFdgfcTLpw/R24t3lXYJKdyrvZgBosp7fxRmtElUhl8J1Zpk5RkOMTacAMwJgESxDZZ6BpCFQiJCUIOhrBeXiAG6yPLaJKdQyzu6HNHBWHQS/h7v/AcP/uTj/HE4w8jMt9Ko8n5TJOEJEkQEx4wm5spYBRMJ5anoiHdrqxQH1TpvWM6XqcoK5559GptlTzWGsqqRH2YC9rag9pUzfumPYd61Id5YOVKjBXyxGKTkOoGCaoJakywroReqKk1pK3TSeoqjKD4KMLIUowxe8fS9/qsnRXj7obzjqsPn+fhK+cRkbYzdSC0k/AKiGBsipgUwaJiaitV93QxBmNssE5JgrGGynucFqiG3E1QvCuonNLvD5hOChBL6TxZf0BZleSpJRfB1Jaqck3LR0UFrE1QBOcqBCVJhCxPQaGqgpc0dONuWhs20qutumho4S9ESxhZTvDimdr7ePd20HvaDmq7kSbNZVjPo0xYvSj4Skx9sULpPBr8ltgkw3vqXqgGY5LaGoFJe4g1GGtJUFJvcG2FlOLrXqbGpkwnBWma8/gTT/LYU0/w5huvc/3dd6iqgjxLw3zPOYz3VHV/mqpul+FcRZLY+jYQckxN0+hJpB1OG6gXWp3NG5vzFYlzwsgeNEOpXp6jvqKqe4LeLVJ3FtRdG0UFeSzG/Srvg/u/HXIajE0QyRgM11CxlKXDKaR5D4BpUYDN8QZ6/T6D4ZCyqJiMC5xzPPP0E4w3rnP93YusrCRs3niXft5n7cIlikq5cfMO46IitRZXrzdYqmc4XIXJFDEET6pAlmb0ejlpmtVD9tr5JKG5EzQe3VClYdUiVOhCOUoUYWRXggiFfp6GbJPKHzh5JnTF3vXd7a9IkxKWIMbjPCAJJslxTqh8qOsz1qAi9IYDirLEmzBUFGNwPjzy/gpZDk8/8zT/6X/y93n84TVeefkH/P7/9S/4/Of+gN4gJekPKRXUZCgpU+dJTI88z0n7cOHSJdZv32ZztBnCHYT1MUzSRyXBa9MCI6y81CZ6d9Lomj7iWoc/wutRhJElGCMM++DKTYrpVp0CZpZ+rov3Sn+wysraECF4GRf1qAv1ih7wCCoGY7PwlTIgya4y3izQ6QBvVsmynKeefZqPf+IjpJnw7nubfO97L/DuO++wsTVhfVyR5ylpmvONb73Fb/7vf8TjV89jqXjjnQrbfwLyFW5uDpgUUzana4ymQWBjTXgov8SVKw+TD4fo+B2q8W0qX4XzkIpShhRkQXKieLE4PYc35xBy0FDQ2z4IQX2twy6xqDeyJwJkmfD0kymPPaKsDLenhC3dR92+fjxJ+J1//QZf+OLrlOUI712b5bJz4KIRquBcSA/r9VY5d/XvciUfYpPQZsJ5Jemf5+btyyCe0imr564hySaV9xT1kNbajOl4wvM/UF56xWM89JNPceXJT5LlKSM1lJSsXKkYPOTB1kubWcu6ZmyMhDIvyR5ypLUryHuHWMsERdXVnheL0sNzEZWLWN3E1hlBljpEoXWFhhKydPRQwZ/Ig0yTGDIal2yMSi6sZfTyu7tvT0rlP/snn+P7LxsG/TUqV6Lq6qqE3XuZqnqyJAur5hI8kv3hKuoNeT4IfW98KE9SX+GCW7Kt1RMBFcHZMLdUL4gLDpRUPOIq8tRSFlP6/T5lUdSxyFAVobbOQ6VZrYn6plF7ausfR+skBm1SCowgmmA0CaEJfQ+z+WfY6ffI5A6JdXVsc5ZXGi1hZFfqligMByn9QXqXg9CAryqevlYx7CX0+oqhh5h0qYOnLAvE2FpcFmyOI+Wv/up5Lly4hHqhrCqyPKUqp7iywiYJWyOYjA02SeqWGR6TJGQ2bUU0mWzw0IUVLMrN99+iGvSxdXjD1V3VvCrqQlhCJKTKhcRxV4c6pC0qttZibAh/iDeoCyK3RrH6PtZdJzUleZaSZzmChLQ775lMJtESRpbTrv93wM9PS4et20J4X+c/y/KhbemgKsEp2AR+8PqEf/Qb/x3jSUWS9HnuuY/wa7/2Gf76J65gkoR3rle88MIt/uD/+TIvv/Iqk8mEra0R3vnQNj/PmI43eeu1l3jmiYc51094+cXnqaoqRBrVB2eLGJq4epvSXb+eJJZer8f58xcYDAf08rztUWNMvRxaWaG+wgikpiCXG6RmizyDJDVkacqF8xdAlc3NzWgJI/uhaUt/sJKmLLWtVV2m5Fn9ooA6FRO03AAABDVJREFUnPMUpaKV4Kub+Om3WOn1UTW8+cM3+De/9xavvfJhHn1kNayBaC2PPz7m5s0bjOwGWRIq2X1V4Z3H6AgjL3H5gpJMNrjSf5WimKIuZM1YY6BOTggxvVmQ3ddNgd1mReX6rPUf46HhQ1RVFVpCKjh1qPV1nmxSNzAuUe/wzpIPV/n4xz7Gj/7YJ8l7fd5944dRhJHlmEPUE979MEtn2ZpaIpQYqRASEh1xbuDwfoQai1Qlr77wDd549fskeR9jLVmeMR6PKaoKa6GX+9CEt4Kt0SZVtU5qp5TTWwyTgseu9imKBF+VszaJ3qEu/D88D1USTn09R/X46YjRTceloQ8xRXUhva6pwseAmjq5QOuepwbnKgbDIdeeeZY0zyinoyjCyPFzUAlLbYrqbEu0cpTjCYPhCjbJMSYLCdPGkJowL9M6lmkUirIMFz6KsQkXL13ik5/4WS6f7/HmD77Nm9//OkmeY0RwaYKVOjlcFXyFdy5k+9Qpc9QlUdPptF2YZloU5Hk+11oDNUC9dLf42tOrlFXJ+OZNvvzVL/H+ndskiWX91u0owsjxcpia/OaiNmKwxpIYg6mTyS1heWtVh1GH+hJXhbIn76q63bwnSROKqsJ5x3hc8Pzz32Xz8hp9Ca0ORQSx9bzPhFQ39Z4szcA7mlmhqrS1unmvhzFCludkvRyv4FC0LvnqnnST8u68x0vIhH3vvRvcWf9KmEcS44SRE03TsmKWwF25Cj+ZUFWKMY5pUZH1hvQHFTbNQoW7d3gXLNlg5Rwr1nLz1i3UKd/97rf5ztZNPvWxD1EUU/r/f3tnrts2EIThb0+SugzDEJDeBvL+b5PGRTonMBIriiweu7MpZkkHyQuo4N8IBFsNOMd/RLssVZpuAwWG/kqfBkKdEZ0NgF2U+wKEEAgxkmd1RbVG1N9K1IbFT8aYD5ZMSgl5F7XxZyVwr7hBlOVfPN8S1VrCOccwDIiMGDsQYqvtqGSmNCpp2zgwAmQMwtT3JMkM1wvRW6J3NNstd7st304FHwIp6xkkxIb9Yc80DJzPJ4wUlTXNNLSi37WpFGLT6sZXKi28FqAucqrlvRT1tClzS/2R7lSkkETnyLUIV9wAZunuPH79ZbJbbegxYF2d2YyKeo2ZjXQ9i9aqWCwFZ7V9PL298vN0outaOr/ByEQbHGkaCL7e96y2uylnfIhstnvu7h+4XC7071ckZ1XZozNhKBCaBmMt4zhqYaZE13ZMSbMsvPdLFoa1DmrGxixtmuUVhrUIV9wEzD9P5r93IpkimdhEvItYH/Au4kJUO3ms3vkqG8eYQvAWYzyHXUfbNNiSyGNPaCJIqkGhbjmen39feP3xhd3uwOPTZ46fHhj6nvOvN6axVx2HCDinlLkiTDlhnEOA++OR5+evvLx8r5tQ9bXx3mtGvfOLWdWckeGc5Q+m1HNbTQcJnAAAAABJRU5ErkJggg==;" vertex="1" parent="1">
                    <mxGeometry x="408.9978125" y="-39.996687011718734" width="225" height="265" as="geometry"/>
                </mxCell>
            </root>
        </mxGraphModel>
    </diagram>
</mxfile>